<svg xmlns="http://www.w3.org/2000/svg" width="1437" height="2275" viewBox="0 0 1437 2275" version="1.1"><path d="M 642 96.500 L 642 108 644.500 108 L 647 108 647 99 L 647 90 682.500 90 L 718 90 718 87.500 L 718 85 680 85 L 642 85 642 96.500 M 740 87.500 L 740 90 778.500 90 L 817 90 817 100 L 817 110 819.500 110 L 822 110 822 97.500 L 822 85 781 85 L 740 85 740 87.500 M 652 100 L 652 104 654.500 104 L 657 104 657 102.500 L 657 101 687.500 101 L 718 101 718 98.500 L 718 96 685 96 L 652 96 652 100 M 740 98.500 L 740 101 773 101 L 806 101 806 103.500 L 806 106 808.500 106 L 811 106 811 101 L 811 96 775.500 96 L 740 96 740 98.500 M 817 134 L 817 142 814 142 L 811 142 811 138 L 811 134 808.500 134 L 806 134 806 138 L 806 142 741.500 142 L 677 142 677 144.500 L 677 147 747 147 L 817 147 817 150 L 817 153 747 153 L 677 153 677 155.500 L 677 158 749.500 158 L 822 158 822 142 L 822 126 819.500 126 L 817 126 817 134 M 642 144.500 L 642 158 646 158 L 650 158 650 155.500 L 650 153 648.500 153 L 647 153 647 150 L 647 147 648.500 147 L 650 147 650 144.500 L 650 142 648.500 142 L 647 142 647 136.500 L 647 131 644.500 131 L 642 131 642 144.500 M 636 145.933 L 636 146.865 634 147.500 L 632 148.135 632 149.684 L 632 151.233 634 150.710 L 636 150.187 636 154.094 L 636 158 637.500 158 L 639 158 639 151.500 L 639 145 637.500 145 L 636 145 636 145.933 M 827 149 L 827 153 829 153 L 831 153 831 154 L 831 155 829 155 L 827 155 827 156.500 L 827 158 830.500 158 L 834 158 834 154.406 L 834 150.813 832 150.290 L 830 149.767 830 148.883 L 830 148 832 148 L 834 148 834 146.500 L 834 145 830.500 145 L 827 145 827 149 M 677 168 L 677 176 682 176 L 687 176 687 174.500 L 687 173 683.500 173 L 680 173 680 168 L 680 163 683.500 163 L 687 163 687 161.500 L 687 160 682 160 L 677 160 677 168 M 689 168 L 689 176 690.500 176 L 692 176 692.039 171.750 L 692.078 167.500 694.641 171.750 L 697.203 176 698.602 176 L 700 176 700 168 L 700 160 698.500 160 L 697 160 696.961 164.250 L 696.922 168.500 694.359 164.250 L 691.797 160 690.398 160 L 689 160 689 168 M 703 168 L 703 176 707.500 176 L 712 176 712 171 L 712 166 709 166 L 706 166 706 164.500 L 706 163 709 163 L 712 163 712 161.500 L 712 160 707.500 160 L 703 160 703 168 M 715 168 L 715 176 719.500 176 L 724 176 724 168 L 724 160 719.500 160 L 715 160 715 168 M 727 161.500 L 727 163 730 163 L 733 163 733 164 L 733 165 730 165 L 727 165 727 170.500 L 727 176 731.500 176 L 736 176 736 174.500 L 736 173 733 173 L 730 173 730 170.500 L 730 168 733 168 L 736 168 736 164 L 736 160 731.500 160 L 727 160 727 161.500 M 718 168 L 718 173 719.500 173 L 721 173 721 168 L 721 163 719.500 163 L 718 163 718 168" stroke="none" fill="#ffffff" fill-rule="evenodd"/><path d="M 988.687 230.805 L 986 233.609 986 290.805 L 986 348 987.500 348 L 989 348 989 349 L 989 350 1002.300 350 L 1015.600 350 1016.800 348.800 L 1018 347.600 1018 299.008 L 1018 250.416 1022.500 246 L 1027 241.584 1027 236.860 L 1027 232.136 1024.096 230.068 L 1021.191 228 1006.283 228 L 991.374 228 988.687 230.805 M 721 250.500 L 716.584 255 493.042 255.009 L 269.500 255.017 255.500 267.506 L 241.500 279.996 176.488 279.998 L 111.476 280 96.113 295.387 L 80.751 310.773 81.500 703.887 L 82.249 1097 87.974 1097 L 93.698 1097 99.697 1089.873 L 105.696 1082.746 106.431 701.692 L 107.166 320.637 114.115 312.940 L 121.065 305.244 187.005 304.500 L 252.946 303.756 263.693 291.878 L 274.440 280 502.008 280 L 729.575 280 734.500 275 L 739.425 270 763.278 270 L 787.131 270 789.195 268.896 L 791.259 267.791 790.551 258.154 L 789.844 248.517 788.799 247.258 L 787.755 246 756.586 246 L 725.416 246 721 250.500 M 1136.221 664.786 L 1126.943 673.500 1126.999 777.500 L 1127.054 881.500 1136.213 891.750 L 1145.373 902 1151.745 902 L 1158.117 902 1162.059 905.167 L 1166 908.335 1166 915.026 L 1166 921.717 1176.250 930.850 L 1186.500 939.983 1200.356 939.992 L 1214.212 940 1218 943 L 1221.788 946 1237.101 946 L 1252.414 946 1266.535 932 L 1280.655 918 1299.605 918 L 1318.555 918 1320.777 916.443 L 1323 914.887 1323 911.558 L 1323 908.230 1320.535 906.615 L 1318.070 905 1296.414 905 L 1274.757 905 1260 919 L 1245.243 933 1235.837 933 L 1226.431 933 1224.659 930 L 1222.887 927 1207.670 927 L 1192.453 927 1184.727 919.228 L 1177 911.456 1177 905.947 L 1177 900.437 1171.250 894.825 L 1165.500 889.213 1159.501 888.503 L 1153.501 887.794 1147.143 882.647 L 1140.784 877.500 1141.230 869.699 L 1141.675 861.899 1146.478 857.022 L 1151.281 852.146 1150.540 768.647 L 1149.799 685.149 1151.615 682.074 L 1153.431 679 1177.216 679 L 1201 679 1201 679.929 L 1201 680.857 1202.571 682.429 L 1204.143 684 1210.036 684 L 1215.930 684 1216.965 682.066 L 1218 680.131 1218 670.970 L 1218 661.809 1215.932 658.904 L 1213.864 656 1179.682 656.036 L 1145.500 656.072 1136.221 664.786 M 333.035 1079.934 L 332 1081.869 332 1105.056 L 332 1128.244 349.117 1146.122 L 366.234 1164 375.035 1164 L 383.837 1164 385.918 1160.632 L 388 1157.264 388 1142.869 L 388 1128.473 374 1114.500 L 360 1100.527 360 1092.214 L 360 1083.901 358.474 1080.950 L 356.949 1078 345.510 1078 L 334.070 1078 333.035 1079.934 M 211.218 1146.787 L 198.937 1158.500 198.968 1165.651 L 199 1172.802 204.886 1177.901 L 210.772 1183 217.211 1183 L 223.651 1183 226 1180.500 L 228.349 1178 252.500 1178 L 276.651 1178 278.826 1175.686 L 281 1173.371 281 1156.360 L 281 1139.349 278.686 1137.174 L 276.371 1135 249.936 1135.037 L 223.500 1135.074 211.218 1146.787" stroke="none" fill="#ff00d4" fill-rule="evenodd"/><path d="M 719.607 52.582 L 719 54.164 719 90.778 L 719 127.392 721.636 131.196 L 724.272 135 729.085 135 L 733.898 135 736.449 131.656 L 739 128.311 739 90.816 L 739 53.321 736.453 52.161 L 733.906 51 727.060 51 L 720.214 51 719.607 52.582 M 892.655 163.829 L 891 165.657 891 192.411 L 891 219.164 839.423 270.582 L 787.845 322 720.314 322 L 652.782 322 630.298 344 L 607.813 366 506.632 366 L 405.450 366 398 373.500 L 390.550 381 285.949 381 L 181.349 381 179.174 383.314 L 177 385.629 177 387.588 L 177 389.547 184.772 397.273 L 192.544 405 335.522 405.018 L 478.500 405.037 507.750 433.219 L 537 461.401 537 492.076 L 537 522.751 503.500 555.493 L 470 588.234 470 647.943 L 470 707.651 467.686 709.826 L 465.371 712 362.267 712 L 259.164 712 257.582 711.393 L 256 710.786 256 705.593 L 256 700.400 254.800 699.200 L 253.600 698 240.882 698 L 228.164 698 226.582 698.607 L 225 699.214 225 702.911 L 225 706.608 228.500 710 L 232 713.392 232 720.129 L 232 726.866 236.500 730.554 L 241 734.241 241 749.918 L 241 765.594 237 769.500 L 233 773.406 233 853.579 L 233 933.752 218.500 947.483 L 204 961.214 204 995.910 L 204 1030.606 192.157 1042.303 L 180.315 1054 171.400 1054 L 162.485 1054 138.242 1078.258 L 114 1102.515 114.023 1118.008 L 114.046 1133.500 125.015 1145.500 L 135.983 1157.500 135.992 1177.510 L 136 1197.519 155.500 1217 L 175 1236.481 175 1277.503 L 175 1318.525 189.750 1333.175 L 204.500 1347.825 236.995 1348.538 L 269.490 1349.250 309.245 1388.253 L 349 1427.256 349 1469.384 L 349 1511.513 378 1540.500 L 407 1569.487 407 1590.779 L 407 1612.070 408.615 1614.535 L 410.230 1617 421.271 1617 L 432.311 1617 435.656 1614.449 L 439 1611.898 439 1602.610 L 439 1593.321 441.547 1592.161 L 444.094 1591 458.466 1591 L 472.838 1591 480.061 1583 L 487.285 1575 584.392 1574.995 L 681.500 1574.990 685.500 1572.526 L 689.500 1570.062 715.534 1570.031 L 741.568 1570 747 1575.500 L 752.432 1581 756.093 1581 L 759.754 1581 768.377 1590.394 L 777 1599.788 777 1682.191 L 777 1764.594 781 1768.500 L 785 1772.406 785 1796.814 L 785 1821.221 796.500 1833.479 L 808 1845.736 808 1852.135 L 808 1858.533 819.500 1870 L 831 1881.467 831 1913.355 L 831 1945.242 873.500 1988.494 L 916 2031.746 916 2059.316 L 916 2086.887 918.223 2088.443 L 920.445 2090 942.166 2090 L 963.887 2090 965.443 2087.777 L 967 2085.555 967 2066.313 L 967 2047.070 965.066 2046.035 L 963.131 2045 953.681 2045 L 944.230 2045 942.615 2042.535 L 941 2040.070 941 2030.781 L 941 2021.491 898.500 1979 L 856 1936.509 856 1904.489 L 856 1872.469 844 1860.500 L 832 1848.531 831.992 1842.016 L 831.983 1835.500 821.015 1823.500 L 810.046 1811.500 810.023 1787.958 L 810 1764.416 805.500 1760 L 801 1755.584 801 1671.466 L 801 1587.349 780.411 1566.174 L 759.822 1545 719.805 1545 L 679.788 1545 676 1548 L 672.212 1551 547.849 1551 L 423.485 1551 398.783 1526.250 L 374.081 1501.500 372.985 1460.054 L 371.889 1418.609 325.195 1371.389 L 278.500 1324.169 246.475 1324.084 L 214.450 1324 207.225 1316.726 L 200 1309.453 200 1300.426 L 200 1291.400 201.200 1290.200 L 202.400 1289 215.497 1289 L 228.594 1289 232.500 1293 L 236.406 1297 263.323 1297 L 290.239 1297 345.120 1351.127 L 400 1405.254 400 1425.662 L 400 1446.070 401.615 1448.535 L 403.230 1451 407.548 1451 L 411.866 1451 415.433 1446.647 L 419 1442.294 419 1395.258 L 419 1348.223 408.120 1338.111 L 397.240 1328 377.040 1328 L 356.841 1328 320.809 1291.500 L 284.778 1255 261.097 1255 L 237.416 1255 233 1259.500 L 228.584 1264 219.042 1263.996 L 209.500 1263.993 204.750 1258.115 L 200 1252.238 200 1239.859 L 200 1227.481 180.500 1208 L 161 1188.519 161 1167.993 L 161 1147.467 149.500 1136 L 138 1124.533 138 1119.006 L 138 1113.479 155.250 1096.335 L 172.500 1079.192 181.494 1078.486 L 190.488 1077.780 209.628 1059.390 L 228.768 1041 229.505 1006.599 L 230.242 972.198 242.941 959.099 L 255.640 946 309.599 946 L 363.558 946 369.779 939.723 L 376 933.446 376 927.338 L 376 921.230 373.535 919.615 L 371.070 918 317.703 918 L 264.335 918 261.167 914.059 L 258 910.117 258 841.226 L 258 772.335 262 769.120 L 266 765.906 266 753.641 L 266 741.376 268.960 739.188 L 271.919 737 368.785 737 L 465.651 737 467.826 739.314 L 470 741.629 470 776.279 L 470 810.930 471.934 811.965 L 473.869 813 482.779 813 L 491.690 813 493.345 811.171 L 495 809.343 495 705.416 L 495 601.489 528.500 568 L 562 534.511 562 466.412 L 562 398.313 566.788 394.276 L 571.577 390.238 597.166 389.500 L 622.756 388.762 643.619 367.881 L 664.482 347 731.994 347 L 799.506 347 857.737 288.750 L 915.968 230.500 916.257 211 L 916.546 191.500 916.773 212.163 L 917 232.827 862 287.220 L 807 341.613 807 367.576 L 807 393.540 816.341 402.842 L 825.683 412.144 826.372 447.751 L 827.062 483.357 831.742 488.928 L 836.422 494.500 860.711 519.060 L 885 543.619 885 589.774 L 885 635.930 883.066 636.965 L 881.131 638 821.778 638 L 762.425 638 757.500 643 L 752.575 648 735.673 648 L 718.772 648 712.741 653.224 L 706.710 658.449 707.219 787.112 L 707.727 915.775 710.482 919.388 L 713.237 923 722.084 923 L 730.930 923 731.965 924.934 L 733 926.869 733 934.195 L 733 941.521 715 959.500 L 697 977.479 697 1025.021 L 697 1072.563 702.779 1078.281 L 708.558 1084 746.279 1084 L 784 1084 784 1115.067 L 784 1146.133 786.527 1149.446 L 789.053 1152.759 807.775 1153.498 L 826.496 1154.236 835.129 1162.118 L 843.763 1170 999.102 1170 L 1154.442 1170 1160.221 1175.719 L 1166 1181.437 1166 1224.626 L 1166 1267.814 1161.111 1271.907 L 1156.222 1276 1147.286 1276 L 1138.349 1276 1136.174 1278.314 L 1134 1280.629 1134 1288.010 L 1134 1295.391 1136.687 1298.195 L 1139.374 1301 1157.308 1301 L 1175.242 1301 1188.257 1288.758 L 1201.273 1276.516 1200.793 1224.051 L 1200.313 1171.587 1186.406 1158.328 L 1172.500 1145.069 1065.603 1145.034 L 958.706 1145 954.296 1141.386 L 949.886 1137.772 918.521 1138.507 L 887.157 1139.242 883.883 1142.621 L 880.608 1146 870.927 1146 L 861.246 1146 853.529 1137.500 L 845.812 1129 828.594 1129 L 811.376 1129 809.188 1126.040 L 807 1123.081 807 1113.950 L 807 1104.819 811.500 1099.552 L 816 1094.284 816 1072.297 L 816 1050.310 814.171 1048.655 L 812.343 1047 807.575 1047 L 802.807 1047 796.543 1052.500 L 790.278 1058 757.254 1058 L 724.230 1058 722.615 1055.535 L 721 1053.070 721 1021.166 L 721 989.262 742 969.024 L 763 948.786 763.019 928.143 L 763.038 907.500 771.591 898.268 L 780.144 889.036 779.822 886.768 L 779.500 884.500 757.557 884.230 L 735.613 883.960 733.807 882.325 L 732 880.690 732 778.045 L 732 675.400 733.200 674.200 L 734.400 673 740.078 673 L 745.755 673 747 674.500 L 748.245 676 841.658 676 L 935.070 676 937.535 677.615 L 940 679.230 940 703.058 L 940 726.887 943 728.659 L 946 730.431 946 777.061 L 946 823.690 948 825.500 L 950 827.310 950 868.251 L 950 909.191 952.068 912.096 L 954.136 915 970.533 915 L 986.930 915 987.965 913.066 L 989 911.131 989 908.951 L 989 906.770 981.500 899.063 L 974 891.356 974 850.333 L 974 809.310 972 807.500 L 970 805.690 970 726.564 L 970 647.437 964.221 641.719 L 958.442 636 937.388 636 L 916.335 636 913.167 632.059 L 910 628.117 910 579.302 L 910 530.487 881.924 502.493 L 853.848 474.500 854.510 440.500 L 855.172 406.500 846.586 398.022 L 838 389.544 838 368.899 L 838 348.254 890 297.010 L 942 245.765 942 220.501 L 942 195.237 945.500 192.568 L 949 189.898 949 177.883 L 949 165.869 947.965 163.934 L 946.930 162 920.620 162 L 894.310 162 892.655 163.829 M 472.174 829.314 L 470 831.629 470 869.102 L 470 906.575 465 911.500 L 460 916.425 460 943.973 L 460 971.521 477.750 989.173 L 495.500 1006.826 505.760 1007.522 L 516.020 1008.217 518.510 1006.586 L 521 1004.954 521 1000.830 L 521 996.706 517.433 992.353 L 513.866 988 507.645 988 L 501.425 988 496.712 983.216 L 492 978.431 492 967.278 L 492 956.124 487.500 952.893 L 483 949.661 483 938.980 L 483 928.300 489 923.081 L 495 917.863 495 875.382 L 495 832.901 493.474 829.950 L 491.949 827 483.149 827 L 474.349 827 472.174 829.314 M 83.687 1278.805 L 81 1281.609 81 1349.919 L 81 1418.229 96.531 1434.517 L 112.063 1450.806 112.382 1538.219 L 112.701 1625.633 115.350 1630.155 L 118 1634.676 118 1660.369 L 118 1686.063 119.514 1686.644 L 121.028 1687.225 120.386 1694.926 L 119.744 1702.626 125.230 1707.313 L 130.716 1712 165.987 1712 L 201.259 1712 219.629 1694.389 L 238 1676.779 238 1662.089 L 238 1647.400 239.200 1646.200 L 240.400 1645 269.796 1645 L 299.193 1645 305.596 1650.622 L 312 1656.244 312 1719.250 L 312 1782.255 317 1789 L 322 1795.745 322.021 1843.122 L 322.042 1890.500 349.500 1919 L 376.958 1947.500 376.979 1977.389 L 377 2007.279 382.155 2006.668 L 387.309 2006.058 390.958 2003.529 L 394.608 2001 476.603 2001 L 558.598 2001 578.977 2022.500 L 599.355 2044 602.062 2044 L 604.768 2044 620 2060 L 635.232 2076 656.383 2076 L 677.534 2076 688.267 2065.234 L 699 2054.467 699.041 2020.484 L 699.082 1986.500 727.291 1957.806 L 755.500 1929.112 766 1928.481 L 776.500 1927.850 778.348 1930.995 L 780.196 1934.140 779.464 1957.641 L 778.732 1981.142 782.569 1985.071 L 786.406 1989 805.646 1989 L 824.887 1989 826.443 1986.777 L 828 1984.555 827.978 1975.027 L 827.957 1965.500 818.500 1955 L 809.043 1944.500 808.999 1927.500 L 808.955 1910.500 789.311 1889.750 L 769.667 1869 729.698 1869 L 689.729 1869 681.468 1861.500 L 673.207 1854 636.104 1854 L 599 1854 597 1856 L 595 1858 595.015 1860.750 L 595.031 1863.500 595.978 1865 L 596.925 1866.500 631.621 1866.800 L 666.316 1867.099 674.441 1874.475 L 682.565 1881.851 697.862 1882.925 L 713.159 1884 714.188 1884 L 715.216 1884 714.516 1910.250 L 713.815 1936.500 694.408 1956.009 L 675 1975.518 675 1998.587 L 675 2021.656 669.250 2026.323 L 663.500 2030.990 655.896 2030.995 L 648.292 2031 645.646 2028.548 L 643 2026.095 643 2023.583 L 643 2021.070 641.066 2020.035 L 639.131 2019 624.965 2019 L 610.799 2019 603.400 2012.377 L 596 2005.755 596 1993.282 L 596 1980.809 594.020 1978.028 L 592.039 1975.246 566.536 1974.511 L 541.034 1973.775 525.408 1957.388 L 509.782 1941 458.016 1941 L 406.249 1941 376.624 1910.619 L 347 1880.239 347 1831.332 L 347 1782.425 342 1777.500 L 337 1772.575 337 1708.959 L 337 1645.343 323.456 1632.922 L 309.913 1620.500 270.206 1620 L 230.500 1619.500 222.250 1626.873 L 214 1634.246 214 1649.389 L 214 1664.533 202.734 1675.766 L 191.469 1687 176.734 1687 L 162 1687 162 1676.380 L 162 1665.760 152 1655 L 142 1644.240 142 1633.587 L 142 1622.934 139.500 1618 L 137 1613.066 137 1527.412 L 137 1441.757 122.130 1426.128 L 107.260 1410.500 106.523 1385.251 L 105.785 1360.001 119.393 1345.631 L 133 1331.262 133 1327.347 L 133 1323.432 127.500 1318 L 122 1312.568 122 1295.810 L 122 1279.051 119.050 1277.526 L 116.099 1276 101.237 1276 L 86.374 1276 83.687 1278.805 M 518.750 1346.717 L 517 1348.657 517 1399.598 L 517 1450.538 526.768 1460.269 L 536.536 1470 566.645 1470 L 596.755 1470 597.794 1468.748 L 598.833 1467.496 599.540 1456.944 L 600.247 1446.392 597.659 1444.696 L 595.070 1443 573.256 1443 L 551.442 1443 545.313 1436.750 L 539.185 1430.500 538.476 1418 L 537.768 1405.500 536.384 1402.800 L 535 1400.099 535 1394.903 L 535 1389.707 539.500 1384.897 L 544 1380.086 544 1378.198 L 544 1376.310 542.107 1374.597 L 540.215 1372.885 537.357 1372.122 L 534.500 1371.359 534.219 1359.777 L 533.938 1348.194 532.538 1347.032 L 531.138 1345.870 525.819 1345.324 L 520.500 1344.777 518.750 1346.717" stroke="none" fill="#ff8100" fill-rule="evenodd"/><path d="M 395 75 L 396.500 75.969 399 75.969 L 401.500 75.969 403 75 L 404.500 74.031 399 74.031 L 393.500 74.031 395 75 M 646.216 110.281 L 641 115.563 641 120.688 L 641 125.814 646 130 L 651 134.186 651 152.659 L 651 171.131 652.035 173.066 L 653.070 175 662.978 175 L 672.887 175 674.443 172.777 L 676 170.555 676.022 153.027 L 676.044 135.500 678 133 L 679.956 130.500 679.978 121.644 L 680 112.788 676.916 108.894 L 673.832 105 662.632 105 L 651.432 105 646.216 110.281 M 292.655 174.829 L 291 176.657 291 186.116 L 291 195.575 295.784 200.288 L 300.569 205 318.051 205 L 335.533 205 347 216.500 L 358.467 228 444.167 228 L 529.866 228 533.554 223.500 L 537.241 219 558.552 219 L 579.864 219 581.932 216.096 L 584 213.191 584 194.751 L 584 176.310 582.171 174.655 L 580.343 173 561.550 173 L 542.758 173 530 185 L 517.242 197 440.355 197 L 363.469 197 351.500 185 L 339.531 173 316.921 173 L 294.310 173 292.655 174.829 M 534 225 L 529.814 230 393.157 230.012 L 256.500 230.023 243 242.500 L 229.500 254.977 164.869 254.988 L 100.237 255 78.119 277.877 L 56 300.754 56 770.638 L 56 1240.522 72.761 1257.261 L 89.521 1274 102.827 1274 L 116.133 1274 119.567 1276.619 L 123 1279.237 123 1295.900 L 123 1312.563 129 1318.500 L 135 1324.437 135 1328.349 L 135 1332.262 121.500 1346.518 L 108 1360.775 108 1385.797 L 108 1410.820 115.363 1417.410 L 122.726 1424 129.264 1424 L 135.802 1424 140.901 1418.114 L 146 1412.228 146 1405.367 L 146 1398.505 141 1393.909 L 136 1389.312 136.037 1378.906 L 136.074 1368.500 147.521 1355.500 L 158.967 1342.500 158.984 1328.469 L 159 1314.437 153 1308.500 L 147 1302.563 147 1285.893 L 147 1269.223 136.120 1259.111 L 125.240 1249 112.350 1249 L 99.460 1249 90.230 1239.731 L 81 1230.462 81 769.969 L 81 309.476 96.262 294.238 L 111.523 279 176.012 278.998 L 240.500 278.996 254.500 266.506 L 268.500 254.017 424.595 254.009 L 580.690 254 582.345 252.171 L 584 250.343 584 237.394 L 584 224.445 582.443 222.223 L 580.887 220 559.536 220 L 538.186 220 534 225 M 56.021 1338.250 L 56.043 1429.500 71.500 1446 L 86.957 1462.500 86.979 1517.021 L 87 1571.542 78 1580.500 L 69 1589.458 69.055 1659.479 L 69.111 1729.500 120.259 1781.750 L 171.406 1834 195.016 1834 L 218.626 1834 221.500 1831 L 224.374 1828 238.437 1828.007 L 252.500 1828.014 254.750 1831.319 L 257 1834.624 257.013 1871.062 L 257.026 1907.500 263 1914.500 L 268.974 1921.500 268.987 1952.693 L 269 1983.887 271.223 1985.443 L 273.445 1987 282.687 1987 L 291.930 1987 292.965 1985.066 L 294 1983.131 294 1932.287 L 294 1881.442 287.500 1875 L 281 1868.558 281 1856.361 L 281 1844.164 281.607 1842.582 L 282.214 1841 285.433 1841 L 288.651 1841 290.826 1838.686 L 293 1836.371 293 1826.841 L 293 1817.310 291.171 1815.655 L 289.343 1814 286.384 1814 L 283.425 1814 278.500 1809 L 273.575 1804 244.538 1804.031 L 215.500 1804.062 211.500 1806.526 L 207.500 1808.990 195 1808.979 L 182.500 1808.968 137.750 1763.569 L 93 1718.170 93.027 1660.335 L 93.055 1602.500 102.027 1591.522 L 111 1580.543 111 1516.009 L 111 1451.476 95.500 1436 L 80 1420.524 80 1343.874 L 80 1267.223 69.120 1257.111 L 58.240 1247 57.120 1247 L 56 1247 56.021 1338.250 M 202.607 1290.582 L 202 1292.164 202 1299.699 L 202 1307.235 209.106 1315.118 L 216.212 1323 247.725 1323 L 279.238 1323 327.119 1370.127 L 375 1417.255 375 1459.508 L 375 1501.762 399.877 1525.881 L 424.754 1550 547.483 1550 L 670.212 1550 674 1547 L 677.788 1544 719.263 1544 L 760.739 1544 781.870 1565.888 L 803 1587.776 803 1670.708 L 803 1753.639 807 1759 L 811 1764.361 811 1787.447 L 811 1810.533 822.395 1821.895 L 833.789 1833.257 834.502 1840.864 L 835.215 1848.470 846.107 1860.115 L 857 1871.759 857 1904.261 L 857 1936.762 899.500 1978.506 L 942 2020.249 942 2030.589 L 942 2040.930 943.934 2041.965 L 945.869 2043 954.779 2043 L 963.690 2043 965.345 2041.171 L 967 2039.343 967 2024.790 L 967 2010.238 924.500 1968.494 L 882 1926.751 882 1894.255 L 882 1861.759 871.125 1850.130 L 860.249 1838.500 859.538 1831.397 L 858.827 1824.294 847.413 1812.914 L 836 1801.533 836 1777.475 L 836 1753.416 831.410 1748.958 L 826.820 1744.500 827.538 1660.499 L 828.255 1576.498 798.747 1547.749 L 769.238 1519 719.037 1519 L 668.837 1519 664.565 1522.500 L 660.294 1526 548.525 1526 L 436.755 1526 417.878 1507.883 L 399 1489.765 399 1448.759 L 399 1407.752 344.878 1352.876 L 290.755 1298 262.998 1298 L 235.241 1298 231.554 1293.500 L 227.866 1289 215.540 1289 L 203.214 1289 202.607 1290.582 M 1235.655 1874.829 L 1234 1876.657 1234 1886.674 L 1234 1896.690 1235.829 1898.345 L 1237.657 1900 1263.079 1899.965 L 1288.500 1899.929 1291 1898.500 L 1293.500 1897.071 1302.208 1897.035 L 1310.916 1897 1315.121 1901 L 1319.326 1905 1324.375 1905 L 1329.424 1905 1333.462 1901.060 L 1337.500 1897.120 1345.983 1896.694 L 1354.465 1896.269 1359.824 1900.635 L 1365.183 1905 1371.050 1905 L 1376.916 1905 1379.458 1900.662 L 1382 1896.324 1382 1893.530 L 1382 1890.736 1379.989 1887.482 L 1377.977 1884.227 1375.739 1883.627 L 1373.500 1883.027 1369.815 1883.014 L 1366.130 1883 1363.315 1884.061 L 1360.500 1885.123 1357.188 1888.311 L 1353.876 1891.500 1347.349 1891.340 L 1340.821 1891.181 1338.661 1889.275 L 1336.500 1887.369 1333.785 1885.685 L 1331.070 1884 1325.157 1884 L 1319.244 1884 1315.852 1885.417 L 1312.459 1886.835 1310.575 1888.917 L 1308.690 1891 1302.074 1891 L 1295.458 1891 1286.500 1882 L 1277.542 1873 1257.426 1873 L 1237.310 1873 1235.655 1874.829 M 1292.559 1899.532 L 1290.618 1901 1264.258 1901 L 1237.898 1901 1236.449 1904.468 L 1235 1907.936 1235 1917.433 L 1235 1926.930 1236.934 1927.965 L 1238.869 1929 1259.875 1929 L 1280.881 1929 1285.097 1924 L 1289.313 1919 1298.768 1919 L 1308.222 1919 1313 1915 L 1317.778 1911 1324.208 1911 L 1330.639 1911 1336 1915 L 1341.361 1919 1346.787 1919 L 1352.212 1919 1356.106 1915.916 L 1360 1912.832 1360 1909.784 L 1360 1906.736 1357.911 1903.355 L 1355.821 1899.975 1353.976 1898.987 L 1352.131 1898 1347.207 1898 L 1342.282 1898 1337.737 1902 L 1333.193 1906 1324.799 1906 L 1316.406 1906 1312.500 1902 L 1308.594 1898 1301.547 1898.032 L 1294.500 1898.064 1292.559 1899.532" stroke="none" fill="#7f4d1f" fill-rule="evenodd"/><path d="M 780.500 108.521 L 777.500 110.971 777.161 120.822 L 776.823 130.673 779.988 133.337 L 783.153 136 785.428 136 L 787.702 136 791.101 134.851 L 794.500 133.702 796.306 131.833 L 798.111 129.964 800.278 131.482 L 802.445 133 805.473 132.997 L 808.500 132.993 816.161 125.997 L 823.823 119 860.411 119 L 897 119 897 120 L 897 121 899.879 121 L 902.757 121 903.993 118.018 L 905.228 115.036 904.672 113.587 L 904.116 112.138 861.308 112.176 L 818.500 112.215 814.539 110.108 L 810.577 108 805.532 108 L 800.487 108 797.316 108.909 L 794.146 109.819 792.418 107.909 L 790.690 106 787.095 106.036 L 783.500 106.072 780.500 108.521 M 1219.455 645.455 L 1217 647.909 1217 649.455 L 1217 651 1179.892 651 L 1142.784 651 1132.392 660.623 L 1122 670.247 1122 727.949 L 1122 785.651 1119.421 788.076 L 1116.841 790.500 1113.171 791.532 L 1109.500 792.564 1109.500 796.532 L 1109.500 800.500 1112.730 801.544 L 1115.961 802.588 1118.980 805.481 L 1122 808.374 1122 872.801 L 1122 937.228 1127 943 L 1132 948.772 1132 962.767 L 1132 976.763 1128.500 979.432 L 1125 982.102 1125 984.117 L 1125 986.131 1126.035 988.066 L 1127.070 990 1129.844 990 L 1132.618 990 1134.559 988.532 L 1136.500 987.064 1137.846 987.032 L 1139.193 987 1145.470 992.511 L 1151.748 998.023 1235.124 997.630 L 1318.500 997.236 1323.628 996.530 L 1328.757 995.823 1329.977 993.543 L 1331.197 991.263 1330.838 989.381 L 1330.480 987.500 1328.138 987.167 L 1325.797 986.834 1323.394 987.437 L 1320.992 988.040 1318.746 991.508 L 1316.500 994.975 1235.086 994.988 L 1153.672 995 1146.921 989 L 1140.170 983 1138.192 983 L 1136.214 983 1135.607 981.418 L 1135 979.836 1135 963.304 L 1135 946.772 1130 941 L 1125 935.228 1125 870.301 L 1125 805.374 1122 802.500 L 1119 799.626 1119 796.500 L 1119 793.374 1122 790.500 L 1125 787.626 1125 729.951 L 1125 672.277 1134.903 663.138 L 1144.807 654 1185.403 654 L 1226 654 1228 652 L 1230 650 1230 647.700 L 1230 645.400 1228.800 644.200 L 1227.600 643 1224.755 643 L 1221.909 643 1219.455 645.455 M 681.750 648.667 L 680 649.147 680 650.645 L 680 652.143 678.571 653.571 L 677.143 655 653.321 655.005 L 629.500 655.010 623.750 659.677 L 618 664.344 618 668.426 L 618 672.508 570 720.500 L 522 768.492 522 788.342 L 522 808.191 519.932 811.096 L 517.864 814 447.345 814 L 376.827 814 372.413 817.170 L 368 820.339 368 823.478 L 368 826.618 366.532 828.559 L 365.064 830.500 365.032 834.250 L 365 838 367.918 838 L 370.836 838 372.418 837.393 L 374 836.786 373.968 832.643 L 373.936 828.500 372.468 826.559 L 371 824.618 371.021 823.559 L 371.043 822.500 374.931 819.750 L 378.820 817 449.359 817 L 519.898 817 522.449 813.656 L 525 810.311 525 790.402 L 525 770.492 573 722.500 L 621 674.508 621.002 670.504 L 621.005 666.500 626.252 662.256 L 631.500 658.013 659.581 658.006 L 687.662 658 688.920 655.649 L 690.178 653.298 689.839 650.899 L 689.500 648.500 686.500 648.344 L 683.500 648.187 681.750 648.667 M 734.241 675.986 L 733 677.973 733 679.951 L 733 681.930 734.934 682.965 L 736.869 684 739.966 684 L 743.063 684 743.638 682.500 L 744.214 681 839 681 L 933.786 681 934.393 682.582 L 935 684.164 935 706.459 L 935 728.755 933.500 730 L 932 731.245 932 735.180 L 932 739.115 936.250 738.807 L 940.500 738.500 940.813 735.259 L 941.125 732.017 939.563 729.786 L 938 727.555 938 704.712 L 938 681.869 936.965 679.934 L 935.930 678 841.215 677.993 L 746.500 677.987 743.500 676 L 740.500 674.013 737.991 674.007 L 735.481 674 734.241 675.986 M 979.750 731.080 L 978 732.099 978 734.427 L 978 736.755 979.532 738.026 L 981.063 739.298 984.898 738.149 L 988.732 737 1005.758 737 L 1022.784 737 1030.892 745.881 L 1039 754.763 1039 756.759 L 1039 758.755 1037.449 760.042 L 1035.898 761.330 1036.199 764.415 L 1036.500 767.500 1040.500 767.500 L 1044.500 767.500 1044.801 764.415 L 1045.102 761.330 1043.551 760.042 L 1042 758.755 1042 755.743 L 1042 752.732 1033.460 743.429 L 1024.921 734.125 1006.878 733.813 L 988.835 733.500 987.557 731.750 L 986.280 730 983.890 730.030 L 981.500 730.061 979.750 731.080 M 978.329 1304.775 L 977.159 1305.520 976.500 1308.144 L 975.841 1310.768 977.921 1315.072 L 980 1319.376 980 1342.988 L 980 1366.600 1010.848 1397.300 L 1041.696 1428 1044.598 1427.968 L 1047.500 1427.936 1049.250 1426.608 L 1051 1425.280 1051 1422.762 L 1051 1420.245 1049.399 1418.917 L 1047.799 1417.588 1043.487 1419.139 L 1039.176 1420.689 1011.088 1392.588 L 983 1364.487 983 1341.704 L 983 1318.920 985 1315 L 987 1311.080 987 1308.515 L 987 1305.950 984.435 1304.975 L 981.870 1304 980.685 1304.015 L 979.500 1304.031 978.329 1304.775 M 537.667 1390.667 L 537 1391.333 537.032 1394.417 L 537.064 1397.500 538.532 1399.441 L 540 1401.382 540 1414.968 L 540 1428.554 546.775 1435.277 L 553.550 1442 575.088 1442 L 596.626 1442 599.313 1444.805 L 602 1447.609 602 1450.721 L 602 1453.832 605.894 1456.916 L 609.788 1460 658.771 1460 L 707.755 1460 709.042 1461.551 L 710.329 1463.101 713.914 1462.801 L 717.500 1462.500 717.500 1458.609 L 717.500 1454.718 715.868 1453.689 L 714.237 1452.660 710.368 1454.580 L 706.500 1456.500 659.220 1456.778 L 611.941 1457.057 608.470 1454.410 L 605 1451.763 605 1448.577 L 605 1445.392 601.702 1442.196 L 598.405 1439 576.924 1439 L 555.442 1439 549.221 1432.723 L 543 1426.446 543 1413.192 L 543 1399.937 544.500 1399.362 L 546 1398.786 546 1394.393 L 546 1390 542.167 1390 L 538.333 1390 537.667 1390.667 M 695.077 1574.077 L 691.999 1577.155 691.391 1579.577 L 690.783 1582 691.407 1584.485 L 692.030 1586.970 694.592 1587.613 L 697.154 1588.255 699.577 1586.959 L 702 1585.662 702 1583.781 L 702 1581.901 700.459 1578.921 L 698.918 1575.941 699.518 1574.971 L 700.118 1574 719.843 1574 L 739.568 1574 744.939 1579.438 L 750.310 1584.877 754.102 1585.517 L 757.894 1586.158 763.447 1592.483 L 769 1598.807 769 1626.020 L 769 1653.232 763 1660 L 757 1666.768 757 1671.500 L 757 1676.232 763 1683 L 769 1689.768 769 1733.715 L 769 1777.662 766.500 1779 L 764 1780.338 764 1781.169 L 764 1782 752.386 1782 L 740.772 1782 735 1787 L 729.228 1792 633.498 1792 L 537.768 1792 530.884 1798.103 L 524 1804.206 523.997 1844.353 L 523.993 1884.500 517.993 1891.500 L 511.993 1898.500 507.246 1900.151 L 502.500 1901.803 502.187 1903.850 L 501.874 1905.897 502.972 1907.948 L 504.070 1910 507.285 1909.992 L 510.500 1909.984 511.750 1907.293 L 513 1904.601 513.024 1903.551 L 513.048 1902.500 520.023 1894.500 L 526.997 1886.500 526.998 1846.372 L 527 1806.244 533.404 1800.622 L 539.807 1795 635.518 1795 L 731.228 1795 737 1790 L 742.772 1785 752.978 1785 L 763.185 1785 765.727 1787 L 768.270 1789 769.912 1789 L 771.555 1789 773.777 1787.443 L 776 1785.887 776 1782.952 L 776 1780.017 774 1778.768 L 772 1777.519 772 1732.643 L 772 1687.768 766 1681 L 760 1674.232 760 1671.500 L 760 1668.768 766 1662 L 772 1655.232 772 1626 L 772 1596.768 765.971 1589.967 L 759.941 1583.166 756.125 1582.521 L 752.310 1581.877 746.939 1576.438 L 741.568 1571 719.861 1571 L 698.154 1571 695.077 1574.077 M 829.667 1726.667 L 829 1727.333 829 1730.099 L 829 1732.864 831.904 1734.932 L 834.809 1737 835.904 1737 L 837 1737 837 1765.878 L 837 1794.755 838.500 1796 L 840 1797.245 840 1800.137 L 840 1803.029 843.250 1805.011 L 846.500 1806.993 848.034 1806.996 L 849.568 1807 854.784 1812.281 L 860 1817.563 860 1827.548 L 860 1837.533 871.500 1849 L 883 1860.467 883 1892.988 L 883 1925.509 925.500 1968 L 968 2010.491 968 2049.027 L 968 2087.563 973.779 2093.281 L 979.558 2099 988.042 2099 L 996.526 2099 997.513 2101.103 L 998.500 2103.207 1001.210 2104.811 L 1003.920 2106.414 1006.710 2105.439 L 1009.500 2104.463 1009.817 2101.727 L 1010.134 2098.991 1008.638 2097.495 L 1007.143 2096 994.287 2096 L 981.432 2096 976.216 2090.719 L 971 2085.437 971 2046.964 L 971 2008.491 928.500 1966 L 886 1923.509 886 1890.988 L 886 1858.467 874.500 1847 L 863 1835.533 863 1825.482 L 863 1815.432 857.500 1810 L 852 1804.568 852 1802.323 L 852 1800.078 849.750 1797.950 L 847.500 1795.823 843.750 1794.303 L 840 1792.783 840 1761.938 L 840 1731.094 838.839 1728.547 L 837.679 1726 834.006 1726 L 830.333 1726 829.667 1726.667 M 1196.500 2071 L 1177.520 2090 1135.690 2090 L 1093.860 2090 1089.500 2087 L 1085.140 2084 1082.137 2084 L 1079.135 2084 1078.500 2086 L 1077.865 2088 1078.540 2090.127 L 1079.215 2092.253 1084.080 2091.677 L 1088.944 2091.101 1089.531 2092.050 L 1090.118 2093 1134.819 2093 L 1179.520 2093 1198.500 2074 L 1217.480 2055 1240.307 2055 L 1263.133 2055 1266.567 2057.619 L 1270 2060.237 1270 2086.385 L 1270 2112.533 1281.266 2123.766 L 1292.531 2135 1301.516 2135.046 L 1310.500 2135.093 1313.500 2139.013 L 1316.500 2142.933 1320 2143.961 L 1323.500 2144.989 1325.856 2144.994 L 1328.212 2145 1332.071 2141.943 L 1335.931 2138.887 1336.580 2135.427 L 1337.229 2131.967 1335.911 2128.733 L 1334.593 2125.500 1333.047 2124.282 L 1331.500 2123.064 1328.500 2123.043 L 1325.500 2123.022 1321.684 2123.653 L 1317.869 2124.283 1313.853 2128.141 L 1309.837 2132 1302.151 2132 L 1294.466 2132 1283.733 2121.234 L 1273 2110.467 1273 2084.318 L 1273 2058.168 1269.106 2055.084 L 1265.212 2052 1240.346 2052 L 1215.480 2052 1196.500 2071" stroke="none" fill="#6e6e6e" fill-rule="evenodd"/><path d="M 27.111 19.880 L 17 30.760 17.001 217.130 L 17.002 403.500 15.453 1315.696 L 13.904 2227.892 15.955 2231.913 L 18.007 2235.933 20.253 2237.094 L 22.500 2238.255 26.828 2243.127 L 31.155 2248 706.967 2248 L 1382.779 2248 1400.389 2229.629 L 1418 2211.259 1418 1124.457 L 1418 37.655 1403.795 23.327 L 1389.589 9 713.406 9 L 37.223 9 27.111 19.880 M 60.419 42.022 L 57.339 42.969 53.331 47.735 L 49.323 52.500 48.161 54.684 L 47 56.869 47 59.397 L 47 61.925 49.003 67.278 L 51.006 72.631 53.761 75.271 L 56.516 77.910 62.774 79.370 L 69.032 80.830 72.692 79.819 L 76.352 78.809 80.147 75.089 L 83.942 71.369 85.080 66.064 L 86.217 60.760 85.602 56.912 L 84.987 53.065 83.808 50.478 L 82.630 47.892 78.065 44.779 L 73.500 41.667 68.500 41.371 L 63.500 41.075 60.419 42.022 M 386.226 44.707 L 382.052 47.413 380.646 50.957 L 379.240 54.500 378.551 58.637 L 377.862 62.775 378.946 66.801 L 380.031 70.827 385.554 75.876 L 391.078 80.924 394.546 81.575 L 398.013 82.225 402.257 81.559 L 406.500 80.892 411.221 76.696 L 415.943 72.500 416.854 66.535 L 417.765 60.570 416.327 55.730 L 414.890 50.890 411.101 47.101 L 407.313 43.313 404.031 42.656 L 400.750 42 395.575 42 L 390.400 42 386.226 44.707 M 1321 42.703 L 1318.500 43.133 1314.750 44.105 L 1311 45.077 1311 46.563 L 1311 48.050 1308.561 48.977 L 1306.122 49.904 1304.955 52.083 L 1303.789 54.263 1304.176 60.881 L 1304.564 67.500 1306.532 71.491 L 1308.500 75.482 1312.500 77.708 L 1316.500 79.934 1321.304 80.968 L 1326.107 82.002 1330.444 80.910 L 1334.781 79.818 1337.914 74.983 L 1341.047 70.148 1343.135 65.427 L 1345.224 60.706 1344.691 56.735 L 1344.159 52.764 1341.304 49.237 L 1338.450 45.711 1334.991 43.855 L 1331.531 42 1327.516 42.136 L 1323.500 42.272 1321 42.703 M 485 45.329 L 482.500 46.645 480.272 48.050 L 478.043 49.454 476.401 54.677 L 474.758 59.899 475.404 64.208 L 476.050 68.516 480.953 73.258 L 485.857 78 492.678 77.979 L 499.500 77.959 504.500 73.583 L 509.500 69.207 509.500 61.809 L 509.500 54.411 507.692 51.652 L 505.883 48.893 504.192 48.284 L 502.500 47.675 499.846 45.837 L 497.191 44 492.346 44.006 L 487.500 44.012 485 45.329 M 719.607 52.582 L 719 54.164 719 90.778 L 719 127.392 721.636 131.196 L 724.272 135 729.085 135 L 733.898 135 736.449 131.656 L 739 128.311 739 90.816 L 739 53.321 736.453 52.161 L 733.906 51 727.060 51 L 720.214 51 719.607 52.582 M 1118.250 55.674 L 1116 57.244 1116 61.122 L 1116 65 1118 67 L 1120 69 1121.801 69 L 1123.601 69 1126.283 67.750 L 1128.965 66.500 1129.944 63.713 L 1130.922 60.925 1129.979 58.445 L 1129.036 55.964 1126.453 54.982 L 1123.870 54 1122.185 54.052 L 1120.500 54.105 1118.250 55.674 M 217.117 65.814 L 214.734 67.709 214.263 72.614 L 213.792 77.519 216.552 80.280 L 219.313 83.041 221.536 83.598 L 223.758 84.156 226.597 83.828 L 229.435 83.500 231.718 80.102 L 234 76.704 234 73.408 L 234 70.112 231.691 67.427 L 229.382 64.743 224.441 64.331 L 219.500 63.919 217.117 65.814 M 642 96.500 L 642 108 644.500 108 L 647 108 647 99 L 647 90 682.500 90 L 718 90 718 87.500 L 718 85 680 85 L 642 85 642 96.500 M 740 87.500 L 740 90 778.500 90 L 817 90 817 100 L 817 110 819.500 110 L 822 110 822 97.500 L 822 85 781 85 L 740 85 740 87.500 M 652 100 L 652 104 654.500 104 L 657 104 657 102.500 L 657 101 687.500 101 L 718 101 718 98.500 L 718 96 685 96 L 652 96 652 100 M 740 98.500 L 740 101 773 101 L 806 101 806 103.500 L 806 106 808.500 106 L 811 106 811 101 L 811 96 775.500 96 L 740 96 740 98.500 M 646.216 110.281 L 641 115.563 641 120.688 L 641 125.814 646 130 L 651 134.186 651 152.659 L 651 171.131 652.035 173.066 L 653.070 175 662.978 175 L 672.887 175 674.443 172.777 L 676 170.555 676.022 153.027 L 676.044 135.500 678 133 L 679.956 130.500 679.978 121.644 L 680 112.788 676.916 108.894 L 673.832 105 662.632 105 L 651.432 105 646.216 110.281 M 786.450 105.934 L 783.400 106.500 780.450 108.668 L 777.500 110.837 777.161 120.755 L 776.823 130.673 779.988 133.337 L 783.153 136 785.428 136 L 787.702 136 791.101 134.851 L 794.500 133.702 796.438 131.691 L 798.376 129.680 799.810 131.840 L 801.244 134 803.622 134 L 806 134 806 138 L 806 142 741.500 142 L 677 142 677 144.500 L 677 147 747 147 L 817 147 817 150 L 817 153 747 153 L 677 153 677 155.500 L 677 158 749.500 158 L 822 158 822 142 L 822 126 819.500 126 L 817 126 817 134 L 817 142 814 142 L 811 142 811 138.073 L 811 134.147 809.427 133.823 L 807.853 133.500 815.930 126.179 L 824.007 118.858 863.253 119.741 L 902.500 120.624 903.744 119.062 L 904.987 117.500 904.744 115 L 904.500 112.500 862.500 112.420 L 820.500 112.340 817.249 110.644 L 813.999 108.948 809.142 108.027 L 804.285 107.106 799.251 108.434 L 794.216 109.762 791.858 107.565 L 789.500 105.367 786.450 105.934 M 60.734 116.417 L 55.968 117.699 55.595 118.100 L 55.221 118.500 51.361 123.500 L 47.500 128.500 47.643 142.284 L 47.786 156.069 49.076 159.284 L 50.366 162.500 52.804 165.500 L 55.242 168.500 57.371 169.625 L 59.500 170.749 65.262 171.448 L 71.025 172.147 74.317 171.060 L 77.609 169.974 81.940 165.561 L 86.270 161.149 87.255 150.825 L 88.240 140.500 87.134 132.675 L 86.028 124.851 83.938 122.175 L 81.848 119.500 78.174 117.255 L 74.500 115.010 70 115.073 L 65.500 115.135 60.734 116.417 M 642 144.500 L 642 158 646 158 L 650 158 650 155.500 L 650 153 648.500 153 L 647 153 647 150 L 647 147 648.500 147 L 650 147 650 144.500 L 650 142 648.500 142 L 647 142 647 136.500 L 647 131 644.500 131 L 642 131 642 144.500 M 1140.500 146.419 L 1135.500 149.800 1127.750 158.317 L 1120 166.834 1120 174.298 L 1120 181.763 1123.359 184.325 L 1126.718 186.887 1128.628 186.387 L 1130.538 185.887 1132.743 182.670 L 1134.948 179.453 1134.313 175.541 L 1133.678 171.630 1142.910 163.065 L 1152.142 154.500 1152.680 150.416 L 1153.219 146.332 1149.708 144.666 L 1146.198 143 1145.849 143.019 L 1145.500 143.038 1140.500 146.419 M 636 145.933 L 636 146.865 634 147.500 L 632 148.135 632 149.684 L 632 151.233 634 150.710 L 636 150.187 636 154.094 L 636 158 637.500 158 L 639 158 639 151.500 L 639 145 637.500 145 L 636 145 636 145.933 M 827 149 L 827 153 829 153 L 831 153 831 154 L 831 155 829 155 L 827 155 827 156.500 L 827 158 830.500 158 L 834 158 834 154.406 L 834 150.813 832 150.290 L 830 149.767 830 148.883 L 830 148 832 148 L 834 148 834 146.500 L 834 145 830.500 145 L 827 145 827 149 M 137.286 149.705 L 135.073 150.130 132.036 152.966 L 129 155.802 129 157.836 L 129 159.870 129.965 162.407 L 130.929 164.944 134.715 166.531 L 138.500 168.119 141.597 167.543 L 144.693 166.967 145.847 163.117 L 147 159.268 147 156.205 L 147 153.143 145.429 151.571 L 143.857 150 143.010 150 L 142.164 150 140.832 149.640 L 139.500 149.281 137.286 149.705 M 677 168 L 677 176 682 176 L 687 176 687 174.500 L 687 173 683.500 173 L 680 173 680 168 L 680 163 683.500 163 L 687 163 687 161.500 L 687 160 682 160 L 677 160 677 168 M 689 168 L 689 176 690.500 176 L 692 176 692.039 171.750 L 692.078 167.500 694.641 171.750 L 697.203 176 698.602 176 L 700 176 700 168 L 700 160 698.500 160 L 697 160 696.961 164.250 L 696.922 168.500 694.359 164.250 L 691.797 160 690.398 160 L 689 160 689 168 M 703 168 L 703 176 707.500 176 L 712 176 712 171 L 712 166 709 166 L 706 166 706 164.500 L 706 163 709 163 L 712 163 712 161.500 L 712 160 707.500 160 L 703 160 703 168 M 715 168 L 715 176 719.500 176 L 724 176 724 168 L 724 160 719.500 160 L 715 160 715 168 M 727 161.500 L 727 163 730 163 L 733 163 733 164 L 733 165 730 165 L 727 165 727 170.500 L 727 176 731.500 176 L 736 176 736 174.500 L 736 173 733 173 L 730 173 730 170.500 L 730 168 733 168 L 736 168 736 164 L 736 160 731.500 160 L 727 160 727 161.500 M 891.200 162.200 L 890 163.400 890 190.454 L 890 217.507 838.246 269.254 L 786.493 321 716.877 321 L 647.262 321 627.138 341.882 L 607.014 362.763 560.691 363.502 L 514.368 364.241 511.346 362.679 L 508.324 361.116 507.664 333.308 L 507.004 305.500 507.002 295.886 L 507 286.272 510.804 283.636 L 514.608 281 623.091 281 L 731.575 281 736.500 276 L 741.425 271 765.677 271 L 789.930 271 790.965 269.066 L 792 267.131 792 257.740 L 792 248.349 789.686 246.174 L 787.371 244 756.394 244 L 725.416 244 721 248.500 L 716.584 253 652.947 253 L 589.310 253 587.655 251.171 L 586 249.343 586 211.826 L 586 174.310 584.171 172.655 L 582.343 171 561.906 171 L 541.469 171 529.500 183 L 517.531 195 441 195 L 364.469 195 352.500 183 L 340.531 171 315.900 171 L 291.270 171 288.635 173.073 L 286 175.145 286 185.357 L 286 195.568 291.250 200.691 L 296.500 205.813 315.990 206.531 L 335.480 207.250 342.740 213.747 L 350 220.245 350 224.256 L 350 228.266 302.750 227.559 L 255.500 226.852 243.015 239.426 L 230.530 252 163.506 252 L 96.483 252 75.241 273.259 L 54 294.517 54 865.135 L 54 1435.752 69.500 1450.484 L 85 1465.216 85 1517.879 L 85 1570.542 76 1579.500 L 67 1588.458 67.012 1658.979 L 67.023 1729.500 118.762 1782.834 L 170.500 1836.168 195.500 1835.484 L 220.500 1834.800 223.055 1832.400 L 225.609 1830 238.370 1830 L 251.131 1830 253.066 1831.035 L 255 1832.070 255 1838.101 L 255 1844.131 253.965 1846.066 L 252.930 1848 248.665 1848 L 244.400 1848 243.200 1849.200 L 242 1850.400 242 1865.653 L 242 1880.906 243.139 1883.406 L 244.278 1885.905 249.389 1886.203 L 254.500 1886.500 254.782 1897.061 L 255.064 1907.621 261.532 1914.032 L 268 1920.442 268 1952.502 L 268 1984.563 274 1990.500 L 280 1996.437 280 2011.996 L 280 2027.555 278.443 2029.777 L 276.887 2032 256.664 2032 L 236.442 2032 230 2025.500 L 223.558 2019 217.979 2019 L 212.400 2019 211.200 2020.200 L 210 2021.400 210 2032.526 L 210 2043.651 212.314 2045.826 L 214.629 2048 243.714 2048 L 272.799 2048 286.917 2062.878 L 301.036 2077.756 362.268 2078.499 L 423.500 2079.242 427.144 2082.121 L 430.788 2085 477.017 2085 L 523.246 2085 546.018 2107.017 L 568.790 2129.034 569.645 2133.510 L 570.500 2137.987 591.981 2160.993 L 613.461 2184 686.022 2184 L 758.584 2184 763 2188.500 L 767.416 2193 772.774 2193 L 778.131 2193 780.066 2191.965 L 782 2190.930 782 2177.965 L 782 2165 805.500 2165 L 829 2165 829 2154.129 L 829 2143.257 840.250 2142.534 L 851.500 2141.811 852.750 2140.783 L 854 2139.755 854 2134.937 L 854 2130.118 852.750 2129.309 L 851.500 2128.500 842 2127.500 L 832.500 2126.500 831.646 2117.250 L 830.792 2108 826.646 2108.032 L 822.500 2108.064 820.750 2109.392 L 819 2110.720 819 2115.205 L 819 2119.690 817.171 2121.345 L 815.343 2123 728.739 2123 L 642.136 2123 640.068 2120.096 L 638 2117.191 638 2110.218 L 638 2103.246 665.750 2102.539 L 693.500 2101.833 711.500 2084.013 L 729.500 2066.194 737.493 2065.489 L 745.485 2064.784 749.147 2061.884 L 752.809 2058.983 753.524 2048.484 L 754.240 2037.985 759.120 2033.900 L 764 2029.814 764 2003.006 L 764 1976.198 769.886 1971.099 L 775.772 1966 776.886 1966 L 778 1966 778 1973.797 L 778 1981.594 781.792 1985.297 L 785.584 1989 804.745 1989 L 823.906 1989 826.453 1987.839 L 829 1986.679 829 1975.070 L 829 1963.460 819.500 1954 L 810 1944.540 809.979 1927.520 L 809.959 1910.500 790.397 1889.871 L 770.836 1869.242 741.544 1868.510 L 712.252 1867.777 697.889 1853.389 L 683.526 1839 608.713 1839 L 533.901 1839 530.950 1837.474 L 528 1835.949 528 1821.573 L 528 1807.198 533.886 1802.099 L 539.772 1797 571.421 1797 L 603.070 1797 605.535 1798.615 L 608 1800.230 608 1802.533 L 608 1804.836 608.607 1806.418 L 609.214 1808 612.223 1808 L 615.232 1808 620 1804.500 L 624.768 1801 679.031 1801 L 733.294 1801 737.565 1797.500 L 741.837 1794 760.453 1794 L 779.070 1794 781.535 1795.615 L 784 1797.230 784 1809.735 L 784 1822.241 794.896 1833.888 L 805.791 1845.536 806.531 1852.518 L 807.271 1859.500 818.015 1871 L 828.758 1882.500 829.506 1914.500 L 830.254 1946.500 872.127 1989.126 L 914 2031.752 914 2058.917 L 914 2086.081 916.188 2089.040 L 918.376 2092 940.452 2092 L 962.529 2092 975.371 2104.871 L 988.213 2117.741 998.697 2118.444 L 1009.182 2119.146 1013.091 2116.437 L 1017 2113.728 1016.978 2097.114 L 1016.956 2080.500 1015.228 2078.295 L 1013.500 2076.091 1000.525 2074.988 L 987.550 2073.885 984.275 2071.861 L 981 2069.837 981.022 2044.668 L 981.044 2019.500 982.884 2017.107 L 984.724 2014.714 987.612 2015.384 L 990.500 2016.054 1009.230 2035.277 L 1027.959 2054.500 1027.997 2060 L 1028.034 2065.500 1046.267 2084.841 L 1064.500 2104.182 1154.140 2103.461 L 1243.780 2102.740 1244.477 2106.864 L 1245.174 2110.987 1247.861 2112.901 L 1250.548 2114.815 1259.795 2115.538 L 1269.042 2116.261 1278.644 2126.631 L 1288.247 2137 1298.056 2137 L 1307.866 2137 1311.554 2141.500 L 1315.241 2146 1324.536 2146 L 1333.832 2146 1337 2142 L 1340.168 2138 1347.522 2138 L 1354.876 2138 1358.107 2142.500 L 1361.339 2147 1377.549 2147 L 1393.759 2147 1397.380 2142.582 L 1401 2138.163 1401 2119.784 L 1401 2101.405 1397.250 2096.232 L 1393.500 2091.059 1377.172 2091.029 L 1360.843 2091 1356.984 2094.898 L 1353.126 2098.795 1348.012 2099.498 L 1342.898 2100.202 1338.814 2097.371 L 1334.730 2094.541 1333.625 2092.771 L 1332.519 2091 1324.885 2091 L 1317.252 2091 1312.722 2093.532 L 1308.192 2096.064 1306.974 2097.532 L 1305.755 2099 1301.912 2099 L 1298.070 2099 1294.535 2095.896 L 1291 2092.793 1291 2087.507 L 1291 2082.222 1292.807 2079.990 L 1294.615 2077.758 1302.742 2078.477 L 1310.870 2079.197 1314.844 2082.598 L 1318.818 2086 1324.525 2086 L 1330.232 2086 1335 2082.500 L 1339.768 2079 1345.134 2079.044 L 1350.500 2079.088 1355.500 2080.794 L 1360.500 2082.500 1361.487 2084.750 L 1362.474 2087 1378.170 2087 L 1393.866 2087 1397.433 2082.647 L 1401 2078.294 1401 2008.459 L 1401 1938.624 1398.750 1935.319 L 1396.500 1932.014 1386.500 1932.039 L 1376.500 1932.064 1374.559 1933.532 L 1372.618 1935 1369.690 1935 L 1366.762 1935 1360.631 1931.265 L 1354.500 1927.530 1347.308 1927.158 L 1340.115 1926.787 1334.380 1929.894 L 1328.645 1933 1324.555 1933 L 1320.464 1933 1316.636 1930.399 L 1312.808 1927.798 1304.923 1927.257 L 1297.037 1926.717 1293.532 1929.108 L 1290.028 1931.500 1288.517 1935.263 L 1287.006 1939.026 1283.753 1941.009 L 1280.500 1942.993 1244.414 1942.996 L 1208.328 1943 1206.673 1937.047 L 1205.018 1931.095 1202.834 1929.060 L 1200.650 1927.025 1197.169 1926.372 L 1193.688 1925.719 1184.094 1926.317 L 1174.500 1926.915 1169.500 1932.423 L 1164.500 1937.932 1161.056 1940.466 L 1157.611 1943 1105.111 1943 L 1052.611 1943 1026.306 1916.331 L 1000 1889.662 1000 1847.331 L 1000 1805 1007.777 1805 L 1015.554 1805 1022.427 1811.926 L 1029.300 1818.853 1028.659 1824.992 L 1028.017 1831.132 1029.468 1833.939 L 1030.920 1836.746 1033.210 1837.359 L 1035.500 1837.973 1038.554 1837.986 L 1041.608 1838 1044.980 1841.480 L 1048.353 1844.959 1091.426 1845.327 L 1134.500 1845.696 1141.667 1846.977 L 1148.834 1848.259 1149.492 1853.929 L 1150.150 1859.598 1155.823 1866.799 L 1161.497 1874 1183.592 1874 L 1205.688 1874 1210.500 1868 L 1215.312 1862 1250.228 1862 L 1285.144 1862 1289.449 1864.523 L 1293.755 1867.046 1299.302 1866.394 L 1304.849 1865.742 1309.252 1869.350 L 1313.654 1872.958 1317.295 1874.479 L 1320.936 1876 1325.431 1876 L 1329.926 1876 1335.213 1873.939 L 1340.500 1871.878 1342.106 1869.804 L 1343.712 1867.730 1348.327 1868.422 L 1352.941 1869.114 1358.083 1872.651 L 1363.225 1876.188 1371.363 1875.491 L 1379.500 1874.793 1381.500 1873 L 1383.500 1871.207 1390.765 1870.500 L 1398.031 1869.794 1399.515 1867.674 L 1401 1865.555 1401 1765.469 L 1401 1665.382 1399.750 1663.754 L 1398.500 1662.126 1394.936 1661.486 L 1391.372 1660.847 1390.063 1662.424 L 1388.755 1664 1376.231 1664 L 1363.706 1664 1359.603 1660.648 L 1355.500 1657.296 1348.220 1656.584 L 1340.941 1655.873 1336.086 1659.437 L 1331.232 1663 1324.010 1663 L 1316.788 1663 1313 1660 L 1309.212 1657 1283.477 1657 L 1257.742 1657 1238.487 1638.500 L 1219.232 1620 1208.116 1620 L 1197 1620 1196.952 1613.750 L 1196.904 1607.500 1196.057 1590.687 L 1195.209 1573.874 1193.355 1572.469 L 1191.500 1571.064 1189.184 1571.032 L 1186.869 1571 1184.934 1572.035 L 1183 1573.070 1183 1594.914 L 1183 1616.757 1188.409 1621.379 L 1193.819 1626 1206.170 1626 L 1218.520 1626 1236.760 1644.260 L 1255 1662.520 1255 1668.605 L 1255 1674.690 1256.829 1676.345 L 1258.657 1678 1275.329 1678 L 1292 1678 1292 1679.500 L 1292 1681 1274.174 1681 L 1256.349 1681 1254.174 1678.686 L 1252 1676.371 1252 1670.425 L 1252 1664.479 1234.240 1646.740 L 1216.480 1629 1205.240 1629 L 1194 1629 1194 1636.500 L 1194 1644 1208.766 1644 L 1223.533 1644 1234.709 1655.250 L 1245.886 1666.500 1246.570 1672.734 L 1247.255 1678.968 1251.546 1682.484 L 1255.837 1686 1273.418 1686 L 1291 1686 1291 1687.500 L 1291 1689 1272.389 1689 L 1253.778 1689 1249.020 1685.017 L 1244.262 1681.033 1243.574 1674.767 L 1242.886 1668.500 1232.210 1657.750 L 1221.534 1647 1207.767 1647 L 1194 1647 1194 1664.535 L 1194 1682.070 1195.615 1684.535 L 1197.230 1687 1211.357 1687 L 1225.485 1687 1249.242 1710.742 L 1273 1734.484 1273 1741.542 L 1273 1748.600 1271.800 1749.800 L 1270.600 1751 1216.079 1751 L 1161.558 1751 1155.779 1745.281 L 1150 1739.563 1150 1721.593 L 1150 1703.624 1147.750 1700.319 L 1145.500 1697.014 1132.950 1697.007 L 1120.400 1697 1119.200 1695.800 L 1118 1694.600 1118 1663.357 L 1118 1632.113 1115.777 1630.557 L 1113.555 1629 1110.527 1629.022 L 1107.500 1629.044 1105 1631 L 1102.500 1632.956 1080.975 1632.978 L 1059.450 1633 1051.975 1625.476 L 1044.500 1617.953 1044.180 1590.615 L 1043.859 1563.278 1039.430 1558.931 L 1035 1554.584 1035 1500.035 L 1035 1445.486 1007.743 1418.243 L 980.487 1391 967.970 1391 L 955.453 1391 947.727 1383.228 L 940 1375.456 940 1369.463 L 940 1363.471 927.236 1350.736 L 914.472 1338 910.944 1338 L 907.416 1338 903.208 1333.712 L 899 1329.424 899 1321.335 L 899 1313.245 891.600 1306.623 L 884.201 1300 867.838 1300 L 851.475 1300 836.500 1285 L 821.525 1270 769.966 1270 L 718.407 1270 635.703 1187.155 L 553 1104.311 553 1095.620 L 553 1086.930 551.465 1084.587 L 549.930 1082.244 545.715 1081.574 L 541.500 1080.904 537.750 1077.249 L 534 1073.594 534 1066.832 L 534 1060.070 536.121 1058.935 L 538.242 1057.800 543.871 1058.476 L 549.500 1059.152 556.750 1066.301 L 564 1073.450 564 1086.475 L 564 1099.500 643.918 1178.750 L 723.835 1258 775.180 1258 L 826.524 1258 842 1273.500 L 857.476 1289 942.574 1289 L 1027.672 1289 1069.690 1289.660 L 1111.708 1290.321 1125.604 1303.129 L 1139.500 1315.937 1140.500 1319.808 L 1141.500 1323.680 1144.500 1327.288 L 1147.500 1330.897 1151 1331.470 L 1154.500 1332.042 1155.785 1331.190 L 1157.071 1330.338 1157.651 1326.761 L 1158.232 1323.184 1156.366 1320.623 L 1154.500 1318.063 1152.500 1317.999 L 1150.500 1317.935 1140.250 1308.016 L 1130 1298.097 1130 1286.163 L 1130 1274.230 1132.465 1272.615 L 1134.930 1271 1144.268 1271 L 1153.606 1271 1157.803 1267.913 L 1162 1264.827 1162 1262.110 L 1162 1259.392 1158.702 1256.196 L 1155.405 1253 1149.806 1253 L 1144.208 1253 1143.477 1238.387 L 1142.747 1223.774 1144.123 1222.903 L 1145.500 1222.031 1151.589 1222.015 L 1157.679 1222 1158.818 1219.500 L 1159.957 1217 1160.979 1217 L 1162 1217 1162 1209.460 L 1162 1201.919 1159.812 1198.960 L 1157.624 1196 1146.537 1196 L 1135.450 1196 1128.225 1203.274 L 1121 1210.547 1121 1229.142 L 1121 1247.737 1112.925 1254.705 L 1104.849 1261.672 1017.175 1262.335 L 929.500 1262.999 899.128 1262.999 L 868.756 1263 852 1247 L 835.244 1231 784.863 1231 L 734.482 1231 662.241 1159.864 L 590 1088.727 590 1074.488 L 590 1060.248 574.614 1045.624 L 559.227 1031 539.497 1031 L 519.768 1031 512.884 1024.897 L 506 1018.794 506 1015.552 L 506 1012.310 507.829 1010.655 L 509.657 1009 514.629 1009 L 519.600 1009 520.800 1007.800 L 522 1006.600 522 1000.003 L 522 993.406 518.208 989.703 L 514.416 986 508.592 986 L 502.768 986 497.884 982.415 L 493 978.830 493 967.415 L 493 956 498.800 956 L 504.600 956 505.800 957.200 L 507 958.400 507 966.665 L 507 974.930 509.038 976.020 L 511.076 977.111 515.788 976.415 L 520.500 975.719 532.250 964.747 L 544 953.775 544 866.131 L 544 778.486 571.257 751.243 L 598.513 724 609.036 724 L 619.558 724 625.779 717.723 L 632 711.446 632 691.897 L 632 672.349 634.314 670.174 L 636.629 668 664.142 668 L 691.656 668 696.323 662.250 L 700.990 656.500 700.995 641.958 L 701 627.416 696.712 623.208 L 692.424 619 678.415 619 L 664.406 619 660.703 615.208 L 657 611.416 657 603.759 L 657 596.102 660.500 593.432 L 664 590.763 664 587.069 L 664 583.376 661.040 581.188 L 658.081 579 655.656 579 L 653.230 579 651.615 581.465 L 650 583.930 650 599.366 L 650 614.802 655.886 619.901 L 661.772 625 668.318 625 L 674.864 625 676.932 627.904 L 679 630.809 679 638.708 L 679 646.608 675.702 649.804 L 672.405 653 649.612 653 L 626.819 653 621.409 657.621 L 616 662.243 616 667.375 L 616 672.508 568 720.500 L 520 768.492 520 789.189 L 520 809.887 517.777 811.443 L 515.555 813 508.412 813 L 501.270 813 498.635 810.927 L 496 808.855 496 705.807 L 496 602.760 529.500 568.507 L 563 534.255 563 466.720 L 563 399.186 567.889 395.093 L 572.778 391 598.771 391 L 624.764 391 645 370 L 665.236 349 733.868 349.032 L 802.500 349.064 804.250 350.392 L 806 351.720 806 374.752 L 806 397.784 815.025 406.023 L 824.051 414.263 823.775 429.381 L 823.500 444.500 816.798 445 L 810.096 445.500 808.909 446.689 L 807.723 447.877 807.925 477.505 L 808.128 507.132 802.479 513.566 L 796.831 520 714.603 520 L 632.374 520 629.530 517.032 L 626.686 514.063 627.593 491.113 L 628.500 468.163 630.914 464.900 L 633.328 461.638 630.905 457.069 L 628.483 452.500 626.491 452.795 L 624.500 453.090 621.737 454.172 L 618.975 455.253 618.379 457.627 L 617.783 460.001 619.392 464.021 L 621 468.040 621 492.579 L 621 517.117 624.039 520.899 L 627.079 524.682 713.789 525.291 L 800.500 525.900 810.250 516.219 L 820 506.538 820.015 500.519 L 820.031 494.500 820.775 493.329 L 821.520 492.159 824.152 491.498 L 826.785 490.837 829.703 492.346 L 832.621 493.855 841.310 503.322 L 850 512.788 850 521.894 L 850 531 836.903 531 L 823.807 531 810.403 543.646 L 797 556.292 797 563.413 L 797 570.534 786.234 581.267 L 775.467 592 765.349 592 L 755.230 592 753.615 589.535 L 752 587.070 752 575.178 L 752 563.285 744.090 556.142 L 736.180 549 731.450 549 L 726.720 549 725.392 550.750 L 724.064 552.500 724.032 555.816 L 724 559.131 725.035 561.066 L 726.070 563 733.484 563 L 740.898 563 743.449 566.344 L 746 569.689 746 580.760 L 746 591.832 749.894 594.916 L 753.788 598 766.129 598 L 778.470 598 790.235 586.266 L 802 574.531 802 567.389 L 802 560.247 814.389 548.624 L 826.779 537 852.305 537 L 877.832 537 880.916 540.894 L 884 544.788 884 588.720 L 884 632.651 881.686 634.826 L 879.371 637 820.898 637 L 762.425 637 757.500 642 L 752.575 647 734.438 647 L 716.300 647 711.150 652.921 L 706 658.842 706 788.337 L 706 917.832 709.894 920.916 L 713.788 924 721.239 924 L 728.690 924 730.345 925.829 L 732 927.657 732 934.218 L 732 940.779 713.500 958.513 L 695 976.248 695 1025.502 L 695 1074.756 701.404 1080.378 L 707.807 1086 743.704 1086 L 779.600 1086 780.800 1087.200 L 782 1088.400 782 1119.013 L 782 1149.626 784.805 1152.313 L 787.609 1155 806.077 1155 L 824.544 1155 833 1163.500 L 841.456 1172 997.449 1172 L 1153.442 1172 1159.221 1177.719 L 1165 1183.437 1165 1225.173 L 1165 1266.908 1160.356 1270.454 L 1155.712 1274 1146.106 1274.032 L 1136.500 1274.064 1134.750 1275.392 L 1133 1276.720 1133 1286.459 L 1133 1296.198 1136.106 1299.099 L 1139.212 1302 1158.871 1302 L 1178.531 1302 1190.266 1290.235 L 1202 1278.470 1202 1225.622 L 1202 1172.775 1188.376 1158.387 L 1174.752 1144 1102.376 1144 L 1030 1144 1030 1142.621 L 1030 1141.243 1069 1103 L 1108 1064.757 1108 1043.763 L 1108 1022.768 1104.500 1018 L 1101 1013.232 1101 1006.974 L 1101 1000.716 1096.599 995.564 L 1092.198 990.413 1091.493 983.957 L 1090.787 977.500 1090.386 842.979 L 1089.986 708.459 1075.993 694.493 L 1062 680.527 1062 665.263 L 1062 650 1060 648 L 1058 646 1055.750 645.885 L 1053.500 645.770 1051.500 645.982 L 1049.500 646.195 1048.250 647.220 L 1047 648.245 1047 658.622 L 1047 669 1045.599 669 L 1044.198 669 1039 663 L 1033.802 657 1009.601 657 L 985.400 657 984.200 658.200 L 983 659.400 983 663.767 L 983 668.133 985.619 671.567 L 988.237 675 1007.664 675 L 1027.091 675 1029.675 677.584 L 1032.259 680.168 1031.664 685.190 L 1031.069 690.212 1029.912 691.606 L 1028.755 693 1019.446 693 L 1010.136 693 1008 690 L 1005.864 687 996.479 687 L 987.094 687 984.441 688.209 L 981.787 689.418 982.294 693.919 L 982.802 698.420 987.151 702.180 L 991.500 705.940 1016.406 705.970 L 1041.311 706 1044.656 708.551 L 1048 711.102 1048 712.432 L 1048 713.762 1017.778 714.505 L 987.556 715.249 981.778 720.274 L 976 725.300 976 731.615 L 976 737.930 977.750 738.854 L 979.500 739.779 1002.260 740.512 L 1025.019 741.245 1028.900 745.880 L 1032.780 750.515 1033.522 759.507 L 1034.263 768.500 1040.012 775 L 1045.760 781.500 1046.508 873.336 L 1047.255 965.172 1042.722 969.836 L 1038.189 974.500 1037.480 991 L 1036.771 1007.500 1033.493 1012 L 1030.215 1016.500 1029.492 1027.184 L 1028.770 1037.867 1026.427 1040.068 L 1024.084 1042.269 1005.792 1041.602 L 987.500 1040.934 986.173 1041.823 L 984.847 1042.713 985.561 1053.375 L 986.276 1064.038 993.138 1070.122 L 1000 1076.206 1000 1083.429 L 1000 1090.651 997.537 1092.965 L 995.074 1095.279 985.287 1094.599 L 975.500 1093.918 973.255 1091.209 L 971.010 1088.500 971.005 1047.969 L 971 1007.437 976.750 1001.812 L 982.500 996.186 1000 995.470 L 1017.500 994.755 1023.250 989.779 L 1029 984.802 1029 970.785 L 1029 956.768 1025.500 952 L 1022 947.232 1022 941.151 L 1022 935.070 1020.066 934.035 L 1018.131 933 1013.133 933 L 1008.135 933 1007.519 934.940 L 1006.903 936.881 1003.906 937.190 L 1000.909 937.500 972.972 966.500 L 945.034 995.500 945.017 1035.513 L 945 1075.527 931.093 1089.407 L 917.186 1103.287 914.009 1102.652 L 910.832 1102.016 908.032 1100.022 L 905.231 1098.029 904.521 1093.292 L 903.811 1088.556 895.905 1079.896 L 888 1071.237 888 1032.006 L 888 992.775 908.500 971.807 L 929 950.839 929 940.804 L 929 930.768 935.103 923.884 L 941.206 917 962.648 917 L 984.091 917 986.545 914.545 L 989 912.091 988.998 908.795 L 988.997 905.500 982.023 897.500 L 975.048 889.500 975.024 848.872 L 975 808.245 973.500 807 L 972 805.755 972 728.621 L 972 651.487 971.075 648.262 L 970.150 645.037 965.919 640.018 L 961.687 635 940.040 635 L 918.392 635 915.196 631.702 L 912 628.405 912 587.321 L 912 546.237 915.433 543.619 L 918.867 541 958.029 541 L 997.191 541 1000.096 539.284 L 1003 537.569 1003 528.939 L 1003 520.310 1001.171 518.655 L 999.343 517 993.286 517 L 987.230 517 985.744 514.732 L 984.258 512.465 983.526 485.482 L 982.794 458.500 981.242 456.750 L 979.690 455 970.541 455 L 961.392 455 958.196 458.298 L 955 461.595 955 489.298 L 955 517 938.124 517 L 921.249 517 896.624 491.618 L 872 466.236 872 430.007 L 872 393.778 867.907 388.889 L 863.814 384 853.062 384 L 842.310 384 840.655 382.171 L 839 380.343 839 364.764 L 839 349.186 891 297.923 L 943 246.661 943 221.915 L 943 197.168 947 194 L 951 190.832 951 177.276 L 951 163.720 949.250 162.392 L 947.500 161.064 919.950 161.032 L 892.400 161 891.200 162.200 M 718 168 L 718 173 719.500 173 L 721 173 721 168 L 721 163 719.500 163 L 718 163 718 168 M 1312.500 190 L 1303.500 197.971 1249 197.950 L 1194.500 197.929 1192 196.500 L 1189.500 195.071 1183.821 195.035 L 1178.143 195 1176.571 196.571 L 1175 198.143 1175 203.071 L 1175 208 1180.845 208 L 1186.690 208 1188.500 206 L 1190.310 204 1252.155 204 L 1314 204 1314 205.500 L 1314 207 1253.155 207 L 1192.310 207 1190.500 209 L 1188.690 211 1181.845 211 L 1175 211 1175 215.500 L 1175 220 1172.867 222.133 L 1170.733 224.267 1156.117 223.616 L 1141.500 222.964 1115.250 248.170 L 1089 273.375 1089 287.513 L 1089 301.651 1091.314 303.826 L 1093.629 306 1106.850 306 L 1120.070 306 1122.535 304.385 L 1125 302.770 1125 292.624 L 1125 282.478 1141.761 265.739 L 1158.521 249 1170.178 249 L 1181.835 249 1183.508 253.381 L 1185.181 257.761 1187.637 258.881 L 1190.094 260 1191.666 260 L 1193.239 260 1202.869 251.121 L 1212.500 242.241 1273.719 241.495 L 1334.939 240.749 1340.855 245.874 L 1346.772 251 1356.267 251 L 1365.763 251 1368.381 247.567 L 1371 244.133 1371 215.971 L 1371 187.809 1368.932 184.904 L 1366.864 182 1344.182 182.015 L 1321.500 182.029 1312.500 190 M 988.294 230.250 L 985.196 233.500 984.545 290.500 L 983.893 347.500 984.697 348.610 L 985.500 349.721 988.700 351.360 L 991.901 353 1004.235 353 L 1016.569 353 1018.393 349.912 L 1020.218 346.823 1019.481 299.098 L 1018.744 251.373 1024.246 246.672 L 1029.749 241.972 1030.420 237.774 L 1031.091 233.576 1027.296 230.326 L 1023.500 227.075 1007.446 227.038 L 991.392 227 988.294 230.250 M 1339.500 258.482 L 1334.500 262.923 1277.491 262.962 L 1220.481 263 1219.232 265 L 1217.983 267 1202.446 267 L 1186.909 267 1184.409 264.500 L 1181.909 262 1177.068 262 L 1172.227 262 1171.578 266.326 L 1170.930 270.653 1171.642 272.576 L 1172.354 274.500 1173.427 275.235 L 1174.500 275.969 1196.500 275.980 L 1218.500 275.991 1223 273 L 1227.500 270.009 1267.059 270.004 L 1306.618 270 1308.519 271.390 L 1310.421 272.781 1309.232 275.390 L 1308.043 278 1267.759 278 L 1227.474 278 1213.237 292.263 L 1199 306.525 1199 309.737 L 1199 312.949 1201.929 314.463 L 1204.859 315.978 1207.788 315.392 L 1210.717 314.807 1226.097 299.403 L 1241.476 284 1274.156 284 L 1306.836 284 1308.418 284.607 L 1310 285.214 1310 287.632 L 1310 290.050 1307.435 291.025 L 1304.870 292 1277.824 292 L 1250.779 292 1230.890 311.131 L 1211 330.262 1211 358.681 L 1211 387.099 1209.643 389.800 L 1208.286 392.500 1207.644 395.867 L 1207.003 399.234 1209.186 403.117 L 1211.368 407 1214.119 407 L 1216.870 407 1219.435 406.025 L 1222 405.050 1222 398.216 L 1222 391.382 1220.532 389.441 L 1219.064 387.500 1219.056 361 L 1219.048 334.500 1236.211 316.250 L 1253.374 298 1281.687 298 L 1310 298 1310 301.412 L 1310 304.824 1305.767 305.539 L 1301.535 306.254 1292.767 314.267 L 1284 322.280 1284 433.067 L 1284 543.854 1280.365 546.851 L 1276.730 549.847 1275.486 554.674 L 1274.242 559.500 1275.100 561.145 L 1275.958 562.790 1279.128 563.895 L 1282.298 565 1284.593 565 L 1286.887 565 1288.382 562.865 L 1289.877 560.731 1289.935 443.615 L 1289.994 326.500 1296.247 320.783 L 1302.500 315.067 1309.054 315.033 L 1315.608 315 1319 318.500 L 1322.392 322 1330.307 322 L 1338.222 322 1342.861 318.131 L 1347.500 314.261 1356.500 313.520 L 1365.500 312.779 1368.250 310.822 L 1371 308.864 1370.986 285.682 L 1370.973 262.500 1370.430 260.481 L 1369.887 258.462 1366.632 256.231 L 1363.376 254 1353.938 254.021 L 1344.500 254.041 1339.500 258.482 M 264.178 292.257 L 252.855 304.761 187.428 305.505 L 122 306.248 122 307.401 L 122 308.554 115 315.500 L 108 322.446 108 648.658 L 108 974.870 111.979 977.685 L 115.957 980.500 115.979 1011.361 L 116 1042.222 112 1047 L 108 1051.778 107.989 1068.139 L 107.979 1084.500 101.751 1091.750 L 95.524 1099 89.797 1099 L 84.070 1099 83.035 1100.934 L 82 1102.869 82 1166.204 L 82 1229.540 91.269 1238.770 L 100.538 1248 113.368 1248 L 126.198 1248 137.099 1258.137 L 148 1268.274 148 1284.418 L 148 1300.563 154 1306.500 L 160 1312.437 160 1327.850 L 160 1343.264 148.500 1355.521 L 137 1367.779 137 1378.330 L 137 1388.881 142 1393.097 L 147 1397.313 147 1407.073 L 147 1416.832 143 1420 L 139 1423.168 139 1511.533 L 139 1599.898 142.308 1602.421 L 145.615 1604.944 177.484 1606.507 L 209.353 1608.070 213.426 1604.131 L 217.500 1600.192 225.711 1599.495 L 233.922 1598.799 234.851 1597.649 L 235.779 1596.500 236.499 1582.308 L 237.219 1568.116 235.134 1565.188 L 233.049 1562.261 221.792 1561.531 L 210.535 1560.801 191.514 1542.526 L 172.492 1524.250 157.246 1523.512 L 142 1522.774 142 1516.387 L 142 1510 155.750 1510.027 L 169.500 1510.055 191 1531 L 212.500 1551.945 231.290 1551.973 L 250.081 1552 253.040 1554.188 L 256 1556.376 256 1576.620 L 256 1596.864 258.904 1598.932 L 261.809 1601 290.280 1601 L 318.752 1601 336.255 1619.258 L 353.758 1637.517 354.504 1701.673 L 355.250 1765.829 359.625 1770.123 L 364 1774.416 364 1823.966 L 364 1873.515 388.757 1898.258 L 413.515 1923 464.369 1923 L 515.222 1923 520 1919 L 524.778 1915 527.307 1915 L 529.836 1915 531.418 1915.607 L 533 1916.214 533 1928.496 L 533 1940.777 543.880 1950.889 L 554.760 1961 566.225 1961 L 577.690 1961 579.345 1959.171 L 581 1957.343 581 1947.253 L 581 1937.164 581.607 1935.582 L 582.214 1934 586.572 1934 L 590.930 1934 591.965 1935.934 L 593 1937.869 593 1950.840 L 593 1963.811 605 1975.041 L 617 1986.272 617 1999.136 L 617 2012 635.443 2012 L 653.887 2012 655.443 2009.777 L 657 2007.555 657 1988.480 L 657 1969.406 653.250 1965.809 L 649.500 1962.212 640.750 1961.516 L 632 1960.820 632.032 1948.160 L 632.064 1935.500 633.392 1933.750 L 634.720 1932 638.742 1932 L 642.763 1932 645.381 1935.433 L 648 1938.867 648 1941.242 L 648 1943.618 658.289 1953.187 L 668.579 1962.755 674.806 1963.477 L 681.033 1964.200 697.017 1948.984 L 713 1933.768 713 1910.369 L 713 1886.971 709.750 1884.989 L 706.500 1883.007 693.475 1883.004 L 680.450 1883 673 1875.500 L 665.550 1868 630.450 1868 L 595.349 1868 590.075 1861.500 L 584.802 1855 564.561 1855 L 544.321 1855 543.161 1857.547 L 542 1860.094 542 1866.658 L 542 1873.222 546 1878 L 550 1882.778 550 1887.854 L 550 1892.930 548.066 1893.965 L 546.131 1895 544.101 1895 L 542.070 1895 537.493 1893.446 L 532.916 1891.892 530.954 1892.515 L 528.992 1893.137 527.631 1895.735 L 526.270 1898.332 518.385 1905.165 L 510.500 1911.997 506.950 1911.998 L 503.400 1912 502.200 1910.800 L 501 1909.600 501 1889.529 L 501 1869.458 510 1860.500 L 519 1851.542 519 1825.996 L 519 1800.450 526.274 1793.225 L 533.547 1786 631.034 1786 L 728.521 1786 745.761 1768.740 L 763 1751.479 763 1735.416 L 763 1719.352 759.500 1714.429 L 756 1709.506 756 1707.461 L 756 1705.416 760.500 1701 L 765 1696.584 765 1691.686 L 765 1686.788 761.916 1682.894 L 758.832 1679 755.975 1679 L 753.118 1679 752.500 1678 L 751.882 1677 748.426 1677 L 744.971 1677 742.989 1680.250 L 741.007 1683.500 741.004 1684.750 L 741 1686 742.500 1686 L 744 1686 744 1701 L 744 1716 740.730 1716 L 737.460 1716 728 1725.500 L 718.540 1735 704.148 1735 L 689.757 1735 675.129 1721.127 L 660.500 1707.254 632.768 1706.514 L 605.035 1705.773 592.161 1717.887 L 579.287 1730 571.540 1730 L 563.793 1730 555.532 1737.500 L 547.271 1745 519.254 1745 L 491.237 1745 488.568 1741.500 L 485.898 1738 471.317 1738 L 456.736 1738 444.479 1726.500 L 432.221 1715 428.799 1715 L 425.376 1715 423.188 1712.040 L 421 1709.081 421 1697.773 L 421 1686.466 410 1675.500 L 399 1664.534 399 1616.510 L 399 1568.487 371 1540.500 L 343 1512.513 343 1470.877 L 343 1429.241 338.582 1425.620 L 334.163 1422 323.198 1422 L 312.232 1422 289.194 1399 L 266.155 1376 232.299 1376 L 198.442 1376 192 1382.500 L 185.558 1389 179.994 1389 L 174.431 1389 172.716 1386.096 L 171 1383.191 171 1373.336 L 171 1363.481 173.250 1361.991 L 175.500 1360.500 206.250 1360.197 L 237 1359.893 237 1355.447 L 237 1351 235.250 1350.990 L 233.500 1350.980 219.091 1349.947 L 204.683 1348.914 189.341 1334.333 L 174 1319.752 174 1278.740 L 174 1237.729 154 1216.975 L 134 1196.222 134 1176.852 L 134 1157.483 123.520 1145.491 L 113.040 1133.500 113.020 1117.492 L 113 1101.484 136.758 1077.742 L 160.515 1054 169.378 1054 L 178.242 1054 191.249 1041.766 L 204.256 1029.532 203.536 995.016 L 202.817 960.500 217.286 947.215 L 231.755 933.931 232.498 852.715 L 233.242 771.500 236.121 767.856 L 239 764.212 239 749.319 L 239 734.425 234 729.500 L 229 724.575 228.990 718.538 L 228.981 712.500 225.542 708.175 L 222.104 703.850 223.737 700.425 L 225.370 697 239.935 697.015 L 254.500 697.031 255.690 697.787 L 256.880 698.544 257.190 704.022 L 257.500 709.500 360.167 710.377 L 462.834 711.255 465.917 709.059 L 469 706.864 469 647.131 L 469 587.398 481.250 575.413 L 493.500 563.429 515.372 542.229 L 537.245 521.029 536.513 501.515 L 535.781 482 507.594 482 L 479.406 482 475.500 478 L 471.594 474 428.178 474 L 384.762 474 379.002 477.499 L 373.242 480.998 372.497 527.214 L 371.751 573.429 376.478 577.530 L 381.205 581.631 380.470 589.566 L 379.734 597.500 373.685 604.339 L 367.636 611.178 351.850 610.462 L 336.064 609.747 330.146 614.874 L 324.228 620 313.213 620 L 302.198 620 297.117 625.865 L 292.036 631.730 276.418 632.456 L 260.800 633.182 257.900 630.404 L 255 627.626 255 620.885 L 255 614.144 249.250 613.464 L 243.500 612.785 240 612.101 L 236.500 611.417 235.634 603.045 L 234.767 594.673 239.102 591.086 L 243.437 587.500 245.695 585.500 L 247.954 583.500 249.021 576.500 L 250.088 569.500 262.544 556.986 L 275 544.472 275 504.479 L 275 464.486 302 437.500 L 329 410.514 329 409.371 L 329 408.228 300.250 407.596 L 271.500 406.964 231.183 406.015 L 190.866 405.066 182.475 397.448 L 174.084 389.830 174.667 386.665 L 175.249 383.500 177.152 381.500 L 179.055 379.500 283.844 379.215 L 388.632 378.931 396.894 372.088 L 405.156 365.245 452.614 364.503 L 500.072 363.762 501.971 362.131 L 503.870 360.500 504.509 323.500 L 505.148 286.500 502.824 283.822 L 500.500 281.144 388 280.449 L 275.500 279.753 264.178 292.257 M 1319.250 328.218 L 1315 331.357 1315.058 334.929 L 1315.115 338.500 1315.808 342.216 L 1316.500 345.932 1319.944 348.466 L 1323.389 351 1331.073 351 L 1338.757 351 1343.550 345.390 L 1348.342 339.780 1354.326 340.457 L 1360.310 341.134 1363.774 343.777 L 1367.238 346.419 1366.558 353.923 L 1365.878 361.427 1361.439 366.623 L 1357 371.819 1357 384.048 L 1357 396.277 1362.735 403.287 L 1368.469 410.296 1368.850 471.144 L 1369.230 531.992 1359.004 542.996 L 1348.777 554 1331.424 554 L 1314.070 554 1313.071 552.132 L 1312.071 550.264 1309.152 549.680 L 1306.234 549.097 1302.617 550.095 L 1299 551.094 1299 556.926 L 1299 562.757 1301.874 563.948 L 1304.747 565.138 1308.401 564.453 L 1312.054 563.767 1313.062 561.884 L 1314.070 560 1332.156 560 L 1350.242 560 1363.121 547.886 L 1376 535.773 1376 471.605 L 1376 407.437 1370 401.500 L 1364 395.563 1364 384.997 L 1364 374.432 1369.500 369 L 1375 363.568 1375 352.588 L 1375 341.608 1372.364 337.804 L 1369.728 334 1359.607 334 L 1349.486 334 1344 329.500 L 1338.514 325 1331.007 325.040 L 1323.500 325.079 1319.250 328.218 M 130.282 371.019 L 128.064 371.912 126.545 375.546 L 125.027 379.180 123.013 379.707 L 121 380.233 121.004 382.867 L 121.007 385.500 123.167 389 L 125.327 392.500 125.086 402.171 L 124.845 411.842 125.958 413.921 L 127.070 416 130.988 416 L 134.907 416 136.703 413.441 L 138.500 410.882 142.750 406.779 L 147 402.675 147 401.349 L 147 400.023 145.250 397.980 L 143.500 395.936 143.327 386.218 L 143.153 376.500 143.077 374.776 L 143 373.051 140.050 371.526 L 137.099 370 134.800 370.063 L 132.500 370.127 130.282 371.019 M 213.687 418.883 L 209.955 423.777 196.004 424.500 L 182.053 425.222 177.527 430.521 L 173 435.819 173 448.191 L 173 460.563 179 466.500 L 185 472.437 185 486.111 L 185 499.785 180 503.598 L 175 507.411 175 518.124 L 175 528.838 167.126 535.947 L 159.252 543.057 158.511 571.272 L 157.769 599.487 144.884 613.122 L 132 626.758 132 669.758 L 132 712.759 163 743 L 194 773.241 194 782.120 L 194 791 195.839 792.839 L 197.679 794.679 205.700 795.297 L 213.721 795.916 217.331 794.919 L 220.941 793.922 222.471 791.739 L 224 789.555 223.985 786.027 L 223.969 782.500 223.235 781.403 L 222.500 780.305 216.056 779.648 L 209.612 778.990 208.765 777.745 L 207.918 776.500 208.383 772.606 L 208.848 768.712 210.174 767.802 L 211.500 766.892 221.524 767.498 L 231.547 768.103 233.774 765.092 L 236 762.081 236 749.253 L 236 736.425 231 731.500 L 226 726.575 226 720.630 L 226 714.685 221.878 709.342 L 217.757 704 203.564 704 L 189.371 704 182.215 695.750 L 175.058 687.500 175.029 665.866 L 175 644.232 191 629 L 207 613.768 207 594.435 L 207 575.102 210.500 572.432 L 214 569.763 214 554.286 L 214 538.809 216.055 535.923 L 218.110 533.037 217.420 522.129 L 216.729 511.221 219.615 507.444 L 222.500 503.667 223.606 465.084 L 224.712 426.500 225.899 422.079 L 227.087 417.658 225.793 416.446 L 224.500 415.233 220.960 414.611 L 217.420 413.988 213.687 418.883 M 1320 464.820 L 1318.500 465.500 1315.500 467.435 L 1312.500 469.369 1310.185 471.420 L 1307.871 473.470 1306.217 476.956 L 1304.563 480.442 1304.537 485.971 L 1304.512 491.500 1305.263 494.201 L 1306.014 496.902 1311.737 500.701 L 1317.460 504.500 1324.553 504.500 L 1331.646 504.500 1335.902 501.684 L 1340.157 498.868 1342.057 494.684 L 1343.956 490.500 1343.972 485.500 L 1343.989 480.500 1343.007 476.965 L 1342.025 473.430 1338.197 469.693 L 1334.370 465.955 1328.435 464.983 L 1322.500 464.012 1322 464.076 L 1321.500 464.141 1320 464.820 M 155.997 478.216 L 155.994 485.500 155.340 502.750 L 154.685 520 160.211 520 L 165.737 520 166.470 496.435 L 167.204 472.871 166.852 472.571 L 166.500 472.271 161.250 471.601 L 156 470.931 155.997 478.216 M 1012.389 545.904 L 1009.277 547.802 1007.070 550.901 L 1004.864 554 1001.039 554 L 997.214 554 996.607 555.582 L 996 557.164 996 568.035 L 996 578.906 997.161 581.453 L 998.321 584 1002.242 584 L 1006.163 584 1010.332 587.360 L 1014.500 590.720 1017.814 591.348 L 1021.128 591.976 1025.030 589.984 L 1028.933 587.993 1029.967 586.062 L 1031 584.131 1031 567.253 L 1031 550.374 1028.250 547.811 L 1025.500 545.248 1020.500 544.627 L 1015.500 544.006 1012.389 545.904 M 776.521 566.943 L 767.542 576 761.271 576 L 755 576 755.032 580.750 L 755.064 585.500 756.392 587.250 L 757.720 589 765.628 589 L 773.536 589 783.768 578.733 L 794 568.466 794 563.733 L 794 559 792.625 559 L 791.250 559 788.375 558.443 L 785.500 557.887 776.521 566.943 M 1216.662 644.500 L 1212.900 649 1177.841 649 L 1142.781 649 1131.391 659.624 L 1120 670.247 1120 725.402 L 1120 780.558 1113.520 786.980 L 1107.041 793.402 1107.640 797.451 L 1108.239 801.500 1114.120 807.527 L 1120 813.554 1120 874.891 L 1120 936.228 1125 942 L 1130 947.772 1130 961.190 L 1130 974.608 1126.500 978 L 1123 981.392 1123 987.267 L 1123 993.141 1127.053 997.948 L 1131.106 1002.755 1222.994 1003.500 L 1314.882 1004.245 1317.191 1006.750 L 1319.500 1009.255 1322.476 1010.532 L 1325.453 1011.810 1329.226 1009.885 L 1333 1007.959 1333 998.884 L 1333 989.809 1331.297 986.925 L 1329.593 984.041 1325.547 984.669 L 1321.500 985.297 1316.861 989.148 L 1312.222 993 1233.340 993 L 1154.458 993 1145.819 984.250 L 1137.180 975.500 1136.482 960.356 L 1135.784 945.212 1130.892 940.394 L 1126 935.575 1126 910.288 L 1126 885 1127.297 885 L 1128.594 885 1132.297 888.792 L 1136 892.584 1136 897.233 L 1136 901.882 1134.919 902.550 L 1133.838 903.218 1134.559 915.359 L 1135.280 927.500 1157.380 950.364 L 1179.480 973.228 1211.490 972.539 L 1243.500 971.851 1245.745 969.175 L 1247.990 966.500 1247.995 958.874 L 1248 951.248 1263.250 936.754 L 1278.500 922.261 1299.465 921.513 L 1320.430 920.765 1322.715 919.267 L 1325 917.770 1325 914.279 L 1325 910.788 1321.916 906.894 L 1318.832 903 1285.475 903 L 1252.118 903 1251.500 902 L 1250.882 901 1228.546 901 L 1206.211 901 1187.893 881.916 L 1169.576 862.832 1166.838 861.416 L 1164.099 860 1159.671 860 L 1155.243 860 1154.177 857.250 L 1153.112 854.500 1152.429 769.468 L 1151.747 684.436 1154.420 683.218 L 1157.094 682 1177.853 682 L 1198.611 682 1202 684.500 L 1205.389 687 1209.740 687 L 1214.091 687 1216.426 684.665 L 1218.761 682.330 1219.480 672.281 L 1220.199 662.231 1222.454 661.025 L 1224.709 659.818 1228.420 654.847 L 1232.132 649.876 1231.455 646.688 L 1230.777 643.500 1229.234 641.750 L 1227.690 640 1224.057 640 L 1220.424 640 1216.662 644.500 M 747.500 684 L 745.690 686 740.880 686 L 736.070 686 735.148 687.750 L 734.225 689.500 733.488 783.303 L 732.750 877.106 735.050 879.553 L 737.349 882 758.466 882 L 779.584 882 784 886.500 L 788.416 891 801.093 891 L 813.770 891 815.385 893.465 L 817 895.930 817 911.357 L 817 926.784 808.119 934.892 L 799.237 943 795.654 943 L 792.070 943 791.149 944.750 L 790.229 946.500 789.528 953.598 L 788.828 960.696 772.914 976.586 L 757 992.477 757 1003.320 L 757 1014.163 760.500 1018.435 L 764 1022.706 764 1032.179 L 764 1041.651 766.500 1044 L 769 1046.349 769 1050.118 L 769 1053.887 771.223 1055.443 L 773.445 1057 781.504 1057 L 789.563 1057 795.500 1051 L 801.437 1045 807.604 1045 L 813.770 1045 815.385 1047.465 L 817 1049.930 817 1073.291 L 817 1096.651 819.314 1098.826 L 821.629 1101 831.758 1101 L 841.887 1101 843.443 1098.777 L 845 1096.555 845 1084.161 L 845 1071.768 839 1065 L 833 1058.232 833 1033.200 L 833 1008.168 829.106 1005.084 L 825.212 1002 808.306 1002 L 791.400 1002 790.200 1000.800 L 789 999.600 789 994.670 L 789 989.740 804.468 973.620 L 819.937 957.500 835.946 941 L 851.954 924.500 851.977 910.458 L 852 896.416 856.288 892.208 L 860.576 888 870.443 888 L 880.311 888 883.656 885.449 L 887 882.898 887.027 867.199 L 887.054 851.500 896.213 841.250 L 905.373 831 922.605 831 L 939.837 831 941.918 827.632 L 944 824.264 944 784.287 L 944 744.310 942.171 742.655 L 940.343 741 936.371 741 L 932.400 741 931.200 739.800 L 930 738.600 930.022 734.050 L 930.044 729.500 932 727 L 933.956 724.500 933.978 705.424 L 934 686.349 931.686 684.174 L 929.371 682 839.341 682 L 749.310 682 747.500 684 M 1198.346 698.601 L 1195.192 700.157 1194.610 702.328 L 1194.027 704.500 1194.049 707.500 L 1194.071 710.500 1195.500 713 L 1196.929 715.500 1196.965 788.337 L 1197 861.173 1205.750 870.700 L 1214.500 880.226 1216.894 881.143 L 1219.288 882.060 1222.652 880.950 L 1226.015 879.840 1226.999 878.002 L 1227.983 876.164 1227.334 872.832 L 1226.686 869.500 1225.593 868.765 L 1224.500 868.031 1222.369 868.015 L 1220.237 868 1217.651 864.609 L 1215.064 861.217 1210.032 857.523 L 1205 853.830 1205 783.974 L 1205 714.118 1205.973 713.517 L 1206.946 712.916 1207.972 709.104 L 1208.998 705.293 1207.949 702.284 L 1206.900 699.276 1204.403 698.138 L 1201.906 697 1201.703 697.023 L 1201.500 697.046 1198.346 698.601 M 269.750 740.115 L 267 742.167 267 754.880 L 267 767.594 263 771.500 L 259 775.406 259 842.309 L 259 909.212 262.084 913.106 L 265.168 917 317.872 917 L 370.575 917 375.288 912.216 L 380 907.431 380 883.944 L 380 860.456 371.500 852 L 363 843.544 363.015 833.522 L 363.031 823.500 363.765 822.360 L 364.500 821.220 369.482 817.110 L 374.463 813 420.532 813 L 466.600 813 467.800 811.800 L 469 810.600 469 778.194 L 469 745.788 465.916 741.894 L 462.832 738 367.666 738.032 L 272.500 738.063 269.750 740.115 M 1316.433 761.414 L 1313.367 762.749 1310.299 766.625 L 1307.230 770.500 1306.146 774.430 L 1305.062 778.360 1306.142 782.650 L 1307.222 786.940 1308.611 788.092 L 1310 789.245 1310 790.588 L 1310 791.930 1313.104 795.465 L 1316.207 799 1323.117 799 L 1330.027 799 1332.264 797.750 L 1334.500 796.500 1337.319 794 L 1340.139 791.500 1341.757 788.095 L 1343.375 784.690 1343.361 778.595 L 1343.346 772.500 1341.652 769.258 L 1339.957 766.016 1334.728 763.017 L 1329.500 760.019 1324.500 760.049 L 1319.500 760.078 1316.433 761.414 M 396 827.396 L 396 831.791 413.886 848.918 L 431.772 866.045 432.461 872.773 L 433.150 879.500 446.311 892.750 L 459.472 906 461.802 906 L 464.131 906 466.066 904.965 L 468 903.930 468 866.522 L 468 829.113 470.223 827.557 L 472.445 826 484.223 826 L 496 826 496 872.281 L 496 918.563 489.959 924.531 L 483.918 930.500 484.209 934 L 484.500 937.500 490.646 938 L 496.793 938.500 498.725 940.250 L 500.657 942 511.843 942 L 523.028 942 525.985 938.750 L 528.941 935.500 528.971 881.937 L 529 828.374 526.195 825.687 L 523.391 823 459.695 823 L 396 823 396 827.396 M 190.164 833.612 L 186.827 838.145 187.510 862.323 L 188.193 886.500 186.847 888.114 L 185.500 889.728 177.342 890.826 L 169.184 891.925 163.947 897.463 L 158.710 903 153.105 902.991 L 147.500 902.982 139.750 896.314 L 132 889.646 132 886.478 L 132 883.310 133.829 881.655 L 135.657 880 140.794 880 L 145.930 880 146.965 878.066 L 148 876.131 148 872.188 L 148 868.244 149.500 864.654 L 151 861.064 151 857.055 L 151 853.046 148.750 851.642 L 146.500 850.237 138.060 849.635 L 129.621 849.033 127.810 850.672 L 126 852.310 126 859.590 L 126 866.870 122.021 869.685 L 118.043 872.500 118.021 882.368 L 118 892.235 125 900 L 132 907.765 132 921.807 L 132 935.849 125 942.070 L 118 948.291 118 955.736 L 118 963.180 130.168 975.590 L 142.335 988 151.980 988 L 161.626 988 164.213 990.750 L 166.799 993.500 167.519 1008.875 L 168.239 1024.250 173.369 1023.634 L 178.500 1023.017 180.750 1023.009 L 183 1023 183 988.886 L 183 954.771 198.500 938.516 L 214 922.260 214 904.770 L 214 887.280 205 879.055 L 196 870.829 196 859.069 L 196 847.310 197.769 845.709 L 199.539 844.107 206.019 843.804 L 212.500 843.500 212.811 838.587 L 213.123 833.673 210.311 831.373 L 207.500 829.072 200.500 829.075 L 193.500 829.078 190.164 833.612 M 538.250 1061.678 L 537 1062.167 537 1066.887 L 537 1071.608 540.250 1074.754 L 543.500 1077.900 547.776 1078.582 L 552.052 1079.264 554.026 1082.036 L 556 1084.809 556 1093.559 L 556 1102.310 638.203 1184.655 L 720.406 1267 771.966 1267 L 823.525 1267 838.500 1282 L 853.475 1297 869.855 1297 L 886.235 1297 894.118 1304.106 L 902 1311.212 902 1319.403 L 902 1327.594 905.792 1331.297 L 909.584 1335 913.054 1335 L 916.523 1335 933 1351.500 L 949.477 1368 955.994 1368 L 962.510 1368 1000.255 1405.755 L 1038 1443.510 1038 1498.047 L 1038 1552.584 1042.500 1557 L 1047 1561.416 1047 1584.249 L 1047 1607.081 1049.102 1609.925 L 1051.205 1612.768 1079.311 1613.508 L 1107.416 1614.248 1110.012 1616.167 L 1112.608 1618.086 1116.840 1617.410 L 1121.073 1616.733 1122.028 1614.948 L 1122.983 1613.164 1122.323 1609.832 L 1121.663 1606.500 1120.081 1605.282 L 1118.500 1604.064 1115 1604.038 L 1111.500 1604.013 1108.500 1606 L 1105.500 1607.987 1081.700 1607.993 L 1057.901 1608 1054.950 1606.474 L 1052 1604.949 1052 1582.177 L 1052 1559.406 1048 1555.500 L 1044 1551.594 1044 1497.697 L 1044 1443.799 999.846 1398.900 L 955.692 1354 948.580 1354 L 941.467 1354 930.083 1342.583 L 918.698 1331.166 915.293 1330.527 L 911.888 1329.888 909.944 1327.944 L 908 1326 907.986 1318.250 L 907.973 1310.500 898.844 1301.250 L 889.715 1292 872.596 1292 L 855.476 1292 840 1276.500 L 824.524 1261 773.180 1261 L 721.835 1261 641.418 1181.254 L 561 1101.508 561 1088.477 L 561 1075.446 554.250 1068.842 L 547.500 1062.238 543.500 1061.714 L 539.500 1061.189 538.250 1061.678 M 1315.091 1086.191 L 1310.682 1088.500 1309.593 1090.500 L 1308.505 1092.500 1306.124 1095.852 L 1303.743 1099.204 1304.253 1105.557 L 1304.762 1111.910 1310.131 1116.917 L 1315.500 1121.924 1316.628 1121.962 L 1317.755 1122 1319 1123.500 L 1320.245 1125 1324.142 1125 L 1328.040 1125 1331.770 1122.634 L 1335.500 1120.268 1339.750 1116.251 L 1344 1112.233 1344 1104.085 L 1344 1095.937 1342.612 1095.405 L 1341.224 1094.872 1340.657 1092.036 L 1340.090 1089.200 1337.031 1087.022 L 1333.972 1084.844 1326.736 1084.363 L 1319.500 1083.882 1315.091 1086.191 M 390 1159.730 L 390 1186.460 398.729 1195.230 L 407.458 1204 421.694 1204 L 435.930 1204 436.965 1202.066 L 438 1200.131 438 1189.308 L 438 1178.484 415.242 1155.742 L 392.484 1133 391.242 1133 L 390 1133 390 1159.730 M 503.250 1157.662 L 502 1158.167 502 1168.346 L 502 1178.526 516.263 1192.763 L 530.525 1207 541.263 1207 L 552 1207 552 1202.877 L 552 1198.755 531.882 1177.877 L 511.764 1157 508.132 1157.079 L 504.500 1157.158 503.250 1157.662 M 1266.732 1164.289 L 1259.965 1170.500 1259.982 1180.648 L 1260 1190.796 1244 1206.031 L 1228 1221.266 1228 1287.430 L 1228 1353.594 1224 1357.500 L 1220 1361.406 1220 1378.518 L 1220 1395.630 1233.009 1430.524 L 1246.018 1465.418 1246.759 1466.138 L 1247.500 1466.857 1252.445 1465.922 L 1257.390 1464.988 1258.179 1463.744 L 1258.969 1462.500 1259.008 1426.500 L 1259.046 1390.500 1274.574 1373.869 L 1290.101 1357.238 1327.944 1356.501 L 1365.787 1355.764 1366.893 1353.335 L 1368 1350.906 1368 1344.500 L 1368 1338.094 1366.839 1335.547 L 1365.679 1333 1355.806 1333 L 1345.934 1333 1341.217 1335.377 L 1336.500 1337.754 1333 1338.485 L 1329.500 1339.216 1327.304 1341.232 L 1325.108 1343.247 1308.554 1342.517 L 1291.999 1341.787 1289 1338 L 1286 1334.212 1286.005 1328.356 L 1286.010 1322.500 1288.313 1319.621 L 1290.617 1316.743 1313.276 1317.482 L 1335.934 1318.220 1341.148 1322.110 L 1346.361 1326 1356.026 1326 L 1365.690 1326 1367.345 1324.171 L 1369 1322.343 1369 1298.846 L 1369 1275.349 1371.250 1273.266 L 1373.500 1271.184 1381.219 1270.477 L 1388.937 1269.771 1391.469 1266.452 L 1394 1263.133 1394 1255.971 L 1394 1248.809 1391.932 1245.904 L 1389.864 1243 1370.651 1243 L 1351.437 1243 1345.500 1237 L 1339.563 1231 1320.365 1231 L 1301.168 1231 1298.084 1227.106 L 1295 1223.212 1295 1198.834 L 1295 1174.456 1286.729 1166.228 L 1278.458 1158 1275.979 1158.039 L 1273.500 1158.079 1266.732 1164.289 M 232.687 1181.805 L 230 1184.609 230 1193.109 L 230 1201.608 233.298 1204.804 L 236.595 1208 269.721 1208 L 302.846 1208 339.810 1244.500 L 376.773 1281 397.136 1281.019 L 417.500 1281.038 442 1304.482 L 466.500 1327.926 467 1358.213 L 467.500 1388.500 472.372 1388.810 L 477.244 1389.120 479.622 1386.885 L 482 1384.651 482 1352.202 L 482 1319.753 450.879 1287.877 L 419.759 1256 402.504 1256 L 385.249 1256 347.506 1217.500 L 309.764 1179 272.569 1179 L 235.374 1179 232.687 1181.805 M 519.174 1290.314 L 517 1292.629 517 1316.279 L 517 1339.930 518.934 1340.965 L 520.869 1342 526.366 1342 L 531.864 1342 533.932 1344.904 L 536 1347.809 536 1357.837 L 536 1367.866 540.500 1371.554 L 545 1375.241 545 1381.465 L 545 1387.690 547 1389.500 L 549 1391.310 549 1395.500 L 549 1399.690 547 1401.500 L 545 1403.310 545 1415.578 L 545 1427.845 550.358 1432.423 L 555.716 1437 577.162 1437 L 598.608 1437 601.804 1433.702 L 605 1430.405 605 1396.575 L 605 1362.746 568.382 1325.373 L 531.764 1288 526.556 1288 L 521.349 1288 519.174 1290.314 M 1023.719 1304.779 L 1018 1310.558 1018 1335.394 L 1018 1360.230 1022.250 1366.086 L 1026.500 1371.942 1031.050 1371.971 L 1035.600 1372 1036.800 1373.200 L 1038 1374.400 1038 1393.700 L 1038 1413 1035.258 1413 L 1032.516 1413 1010.258 1390.758 L 988 1368.517 988 1337.413 L 988 1306.310 986.250 1304.773 L 984.500 1303.237 982.329 1302.576 L 980.157 1301.915 978.190 1304.027 L 976.222 1306.139 975.611 1309.194 L 975 1312.250 975 1334.125 L 975 1356 972.216 1356 L 969.432 1356 964 1350.500 L 958.568 1345 951.392 1345 L 944.216 1345 936.108 1336.119 L 928 1327.237 928 1322.734 L 928 1318.230 925.373 1316.509 L 922.746 1314.787 916.873 1314.255 L 911 1313.722 911 1318.790 L 911 1323.857 912.532 1325.389 L 914.064 1326.921 917.381 1327.544 L 920.698 1328.166 932.083 1339.583 L 943.467 1351 950.583 1351 L 957.700 1351 1002.350 1396.397 L 1047 1441.795 1047 1495.694 L 1047 1549.594 1051 1553.500 L 1055 1557.406 1055 1569.136 L 1055 1580.866 1059.353 1584.433 L 1063.706 1588 1091.103 1588.015 L 1118.500 1588.030 1122.500 1589.471 L 1126.500 1590.912 1129.703 1590.956 L 1132.906 1591 1135.453 1589.839 L 1138 1588.679 1138 1584.031 L 1138 1579.382 1136.690 1577.591 L 1135.381 1575.800 1128.752 1575.268 L 1122.124 1574.736 1117.865 1577.868 L 1113.606 1581 1090.671 1581 L 1067.736 1581 1064.368 1578.918 L 1061 1576.837 1061 1566.807 L 1061 1556.778 1057 1552 L 1053 1547.222 1053 1459.521 L 1053 1371.819 1057.500 1366.552 L 1062 1361.284 1062 1338.912 L 1062 1316.540 1053.271 1307.770 L 1044.542 1299 1036.990 1299 L 1029.437 1299 1023.719 1304.779 M 243.500 1404.873 L 240.500 1405.509 240.168 1408.413 L 239.837 1411.316 240.464 1414.658 L 241.091 1418 245.595 1418 L 250.099 1418 253.222 1416.385 L 256.345 1414.770 274.690 1415.494 L 293.035 1416.218 300.160 1424.109 L 307.285 1432 318.968 1432 L 330.651 1432 332.826 1434.314 L 335 1436.629 335 1477.071 L 335 1517.514 362.381 1544.881 L 389.762 1572.248 390.506 1620.367 L 391.250 1668.487 401.625 1679.611 L 412 1690.735 412 1702.746 L 412 1714.757 417.303 1719.288 L 422.606 1723.818 427.162 1724.502 L 431.718 1725.185 442.592 1736.092 L 453.466 1747 467.315 1747 L 481.163 1747 485.570 1750.611 L 489.977 1754.222 520.887 1753.487 L 551.797 1752.751 559.123 1745.376 L 566.450 1738 575.491 1738 L 584.533 1738 596 1726.500 L 607.467 1715 632.355 1715 L 657.243 1715 671.871 1728.876 L 686.500 1742.752 704.500 1743.459 L 722.500 1744.166 727.462 1739.083 L 732.425 1734 740.597 1734 L 748.770 1734 750.385 1731.535 L 752 1729.070 752 1726.283 L 752 1723.497 747.750 1721.246 L 743.500 1718.994 741.480 1718.997 L 739.460 1719 730 1728.500 L 720.540 1738 704.148 1738 L 687.757 1738 673 1724 L 658.243 1710 632.011 1710 L 605.779 1710 593.521 1721.500 L 581.264 1733 573.528 1733 L 565.793 1733 557.532 1740.500 L 549.271 1748 519.186 1748 L 489.102 1748 486.432 1744.500 L 483.763 1741 469.250 1741 L 454.736 1741 442.479 1729.500 L 430.221 1718 426.729 1718 L 423.237 1718 420.619 1714.567 L 418 1711.133 418 1699.800 L 418 1688.466 407 1677.500 L 396 1666.534 396 1618.510 L 396 1570.487 368 1542.500 L 340 1514.513 340 1472.924 L 340 1431.335 336.059 1428.167 L 332.117 1425 321.287 1425 L 310.456 1425 302.138 1416.639 L 293.821 1408.278 276.160 1407.570 L 258.500 1406.863 256.285 1405.431 L 254.070 1404 250.285 1404.118 L 246.500 1404.237 243.500 1404.873 M 1318.500 1463.604 L 1313.500 1465.175 1311.164 1467.338 L 1308.828 1469.500 1306.748 1474 L 1304.668 1478.500 1304.212 1483.732 L 1303.755 1488.965 1305.308 1492.232 L 1306.861 1495.500 1309.732 1498.247 L 1312.604 1500.995 1318.490 1502.083 L 1324.375 1503.171 1328.938 1502.487 L 1333.500 1501.803 1335.147 1500.921 L 1336.793 1500.040 1341.897 1493.933 L 1347 1487.825 1346.920 1483.663 L 1346.840 1479.500 1345.170 1474.569 L 1343.500 1469.638 1338.500 1466.132 L 1333.500 1462.627 1328.500 1462.330 L 1323.500 1462.033 1318.500 1463.604 M 704.200 1576.200 L 703 1577.400 703 1581.143 L 703 1584.887 705.223 1586.443 L 707.445 1588 710.548 1588 L 713.651 1588 715.826 1590.314 L 718 1592.629 718 1596.127 L 718 1599.626 715.250 1602.227 L 712.500 1604.829 706.645 1605.543 L 700.790 1606.257 682.723 1614.628 L 664.656 1623 644.189 1623 L 623.722 1623 617.457 1617.500 L 611.193 1612 556.299 1612 L 501.406 1612 497.703 1615.792 L 494 1619.584 494 1623.987 L 494 1628.391 496.687 1631.195 L 499.374 1634 551.466 1634 L 603.558 1634 610 1640.500 L 616.442 1647 668.471 1646.989 L 720.500 1646.977 730.250 1638.309 L 740 1629.641 740 1605.225 L 740 1580.809 737.932 1577.904 L 735.864 1575 720.632 1575 L 705.400 1575 704.200 1576.200 M 1318.162 1576.272 L 1314.823 1577.340 1313.263 1579.721 L 1311.703 1582.102 1309.030 1583.485 L 1306.356 1584.867 1305.177 1588.803 L 1303.998 1592.739 1304.673 1596.120 L 1305.349 1599.500 1308.174 1604.294 L 1311 1609.088 1311 1609.971 L 1311 1610.855 1313.635 1612.927 L 1316.270 1615 1321.478 1615 L 1326.687 1615 1332.546 1612.984 L 1338.405 1610.969 1340.704 1608.809 L 1343.003 1606.649 1343.996 1603.074 L 1344.989 1599.500 1344.994 1593.324 L 1345 1587.149 1340.035 1582.131 L 1335.070 1577.113 1331.285 1576.062 L 1327.500 1575.011 1324.500 1575.108 L 1321.500 1575.204 1318.162 1576.272 M 1383.792 1603.041 L 1379.084 1603.583 1378.458 1604.209 L 1377.832 1604.835 1377.281 1608.940 L 1376.731 1613.045 1378.615 1615.137 L 1380.500 1617.229 1389.843 1616.547 L 1399.187 1615.866 1400.593 1615.326 L 1402 1614.786 1402 1609.368 L 1402 1603.950 1399.355 1602.945 L 1396.710 1601.939 1392.605 1602.220 L 1388.500 1602.500 1383.792 1603.041 M 270.174 1647.314 L 268 1649.629 268.032 1658.064 L 268.064 1666.500 269.532 1668.441 L 271 1670.382 271 1671.191 L 271 1672 269.019 1672 L 267.038 1672 266.516 1669.750 L 265.995 1667.500 265.747 1657 L 265.500 1646.500 252.750 1646.220 L 240 1645.940 240 1662.585 L 240 1679.230 223.376 1696.615 L 206.752 1714 197.310 1714 L 187.869 1714 185.934 1715.035 L 184 1716.070 184 1736.451 L 184 1756.832 187.894 1759.916 L 191.788 1763 201.317 1763 L 210.845 1763 215.544 1757.500 L 220.243 1752 223.898 1752 L 227.554 1752 234.500 1759 L 241.446 1766 268.973 1765.993 L 296.500 1765.987 299.500 1764 L 302.500 1762.013 305.715 1762.007 L 308.930 1762 309.965 1760.066 L 311 1758.131 311 1707.782 L 311 1657.432 305.719 1652.216 L 300.437 1647 297.219 1647 L 294 1647 294 1660 L 294 1673 289.250 1672.868 L 284.500 1672.737 288 1672.118 L 291.500 1671.500 291.785 1660.602 L 292.071 1649.704 289.861 1647.352 L 287.651 1645 280 1645 L 272.349 1645 270.174 1647.314 M 750.250 1685.662 L 747 1689.313 747 1703.136 L 747 1716.959 751 1719 L 755 1721.041 755 1726.116 L 755 1731.191 752.932 1734.096 L 750.864 1737 742.644 1737 L 734.425 1737 729.462 1742.098 L 724.500 1747.197 704.528 1746.503 L 684.555 1745.808 669.899 1731.904 L 655.243 1718 632.355 1718 L 609.467 1718 598 1729.500 L 586.533 1741 577.538 1741 L 568.544 1741 561.022 1748.418 L 553.500 1755.835 520.761 1756.547 L 488.023 1757.260 483.593 1753.630 L 479.163 1750 465.313 1750 L 451.462 1750 441.500 1740 L 431.538 1730 428.703 1730 L 425.869 1730 423.934 1731.035 L 422 1732.070 422 1735.920 L 422 1739.770 424.465 1741.385 L 426.930 1743 431.561 1743 L 436.193 1743 442.346 1748.391 L 448.500 1753.782 462.500 1754.511 L 476.500 1755.240 481.134 1758.620 L 485.768 1762 520.659 1762 L 555.550 1762 563 1754.500 L 570.450 1747 578.961 1747 L 587.471 1747 599.626 1734.874 L 611.781 1722.748 633.260 1723.480 L 654.738 1724.212 669.106 1738.606 L 683.474 1753 705.521 1753 L 727.568 1753 733 1747.500 L 738.432 1742 746.020 1742 L 753.608 1742 756.804 1738.702 L 760 1735.405 760 1728.378 L 760 1721.352 756.500 1716.429 L 753 1711.506 753 1707.642 L 753 1703.778 756.850 1699.139 L 760.700 1694.500 761.377 1691.719 L 762.054 1688.937 759.408 1685.469 L 756.763 1682 755.131 1682.005 L 753.500 1682.011 750.250 1685.662 M 362.449 1759.468 L 361 1762.936 361 1764.781 L 361 1766.626 364 1769.500 L 367 1772.374 367 1821.945 L 367 1871.515 391.258 1895.758 L 415.515 1920 464.869 1920 L 514.222 1920 519 1916 L 523.778 1912 528.214 1912 L 532.651 1912 534.826 1914.314 L 537 1916.629 537 1928.691 L 537 1940.754 546.394 1949.377 L 555.788 1958 561.394 1958 L 567 1958 567 1952.860 L 567 1947.720 565.250 1946.392 L 563.500 1945.064 556.843 1945.032 L 550.186 1945 546.093 1940.111 L 542 1935.222 542 1924.314 L 542 1913.406 538.208 1909.703 L 534.416 1906 528.140 1906 L 521.865 1906 516.341 1910.500 L 510.817 1915 464.786 1915 L 418.754 1915 395.859 1892.864 L 372.964 1870.728 373.361 1820.614 L 373.757 1770.500 374.481 1765.727 L 375.205 1760.953 374.583 1758.477 L 373.962 1756 368.930 1756 L 363.898 1756 362.449 1759.468 M 225.174 1835.314 L 223 1837.629 223 1844.443 L 223 1851.258 219.500 1855.132 L 216 1859.006 216 1862.880 L 216 1866.755 217.250 1867.788 L 218.500 1868.821 222.290 1869.529 L 226.080 1870.238 228.040 1868.464 L 230 1866.690 230 1858.380 L 230 1850.070 232.849 1846.785 L 235.698 1843.500 236.305 1839.634 L 236.912 1835.769 235.527 1834.384 L 234.143 1833 230.746 1833 L 227.349 1833 225.174 1835.314 M 1247.584 1872.748 L 1236.669 1873.071 1235.366 1874.786 L 1234.064 1876.500 1234.032 1901.750 L 1234 1927 1236 1929 L 1238 1931 1259.788 1931 L 1281.575 1931 1286.500 1926 L 1291.425 1921 1300.590 1921 L 1309.755 1921 1311 1919.500 L 1312.245 1918 1313.488 1918 L 1314.730 1918 1317.417 1915.887 L 1320.103 1913.774 1326.545 1914.184 L 1332.986 1914.594 1336.290 1917.797 L 1339.595 1921 1346.960 1921 L 1354.325 1921 1358.912 1918.088 L 1363.500 1915.176 1372.267 1914.468 L 1381.034 1913.761 1383.017 1910.976 L 1385 1908.191 1385 1899.984 L 1385 1891.778 1380.907 1886.889 L 1376.814 1882 1370.382 1882 L 1363.950 1882 1356.821 1885.590 L 1349.691 1889.181 1345.096 1888.512 L 1340.500 1887.843 1336.322 1885.422 L 1332.144 1883 1324.263 1883 L 1316.382 1883 1310.441 1886.581 L 1304.500 1890.163 1299.108 1889.492 L 1293.716 1888.821 1285.325 1880.410 L 1276.933 1872 1267.717 1872.212 L 1258.500 1872.425 1247.584 1872.748 M 59.507 1991.516 L 56.513 1993.134 53.436 1995.481 L 50.360 1997.828 48.680 2003.029 L 47 2008.230 47.006 2018.365 L 47.011 2028.500 47.909 2032 L 48.806 2035.500 49.428 2038.273 L 50.050 2041.046 56.275 2043.895 L 62.500 2046.744 66.539 2047.424 L 70.579 2048.105 74.688 2047.181 L 78.798 2046.258 81.884 2042.879 L 84.971 2039.500 87.132 2035.132 L 89.293 2030.764 89.372 2022.132 L 89.451 2013.500 88.175 2007.071 L 86.899 2000.641 86.169 1999.338 L 85.440 1998.035 79.470 1994.367 L 73.500 1990.699 68 1990.299 L 62.500 1989.898 59.507 1991.516 M 486 2173.331 L 483.500 2174.500 479.750 2177.993 L 476 2181.486 475.980 2185.493 L 475.960 2189.500 474.955 2196.455 L 473.950 2203.411 476.725 2208.955 L 479.500 2214.500 483.486 2216.500 L 487.473 2218.500 488.490 2219.773 L 489.507 2221.046 493.202 2221.645 L 496.898 2222.245 501.844 2218.615 L 506.789 2214.985 508.440 2210.858 L 510.091 2206.732 510.091 2197.471 L 510.091 2188.209 508.072 2182.464 L 506.053 2176.719 505.776 2176.489 L 505.500 2176.259 500.623 2174.130 L 495.746 2172 492.123 2172.081 L 488.500 2172.162 486 2173.331 M 1121.500 2176.442 L 1117.500 2177.918 1115.148 2180.709 L 1112.795 2183.500 1110.954 2185.693 L 1109.112 2187.886 1108.460 2191.359 L 1107.809 2194.831 1109.499 2200.666 L 1111.189 2206.500 1115.612 2210.750 L 1120.035 2215 1128.909 2215 L 1137.784 2215 1143.043 2210.271 L 1148.303 2205.543 1150.129 2201.521 L 1151.956 2197.500 1151.978 2192.718 L 1152 2187.936 1150.534 2184.428 L 1149.069 2180.920 1143.284 2178.342 L 1137.500 2175.764 1131.500 2175.364 L 1125.500 2174.965 1121.500 2176.442 M 58 2179.905 L 52.500 2182.810 50.573 2185.380 L 48.646 2187.951 48.611 2194.225 L 48.577 2200.500 50.303 2203.729 L 52.029 2206.957 57.693 2211.229 L 63.357 2215.500 69.428 2215.410 L 75.500 2215.320 78.667 2213.678 L 81.833 2212.035 84.917 2206.646 L 88 2201.257 88 2195.323 L 88 2189.389 85.475 2185.944 L 82.951 2182.500 78.225 2179.758 L 73.500 2177.016 68.500 2177.008 L 63.500 2177 58 2179.905 M 391.876 2177.819 L 390.252 2178.500 386.090 2182.280 L 381.928 2186.060 380.964 2188.595 L 380 2191.130 380 2197.697 L 380 2204.264 382.071 2207.614 L 384.141 2210.964 386.975 2212.982 L 389.809 2215 394.877 2215 L 399.945 2215 405.392 2212.421 L 410.839 2209.842 413.419 2205.943 L 416 2202.043 416 2199.021 L 416 2196 417 2196 L 418 2196 417.961 2193.750 L 417.922 2191.500 414.649 2186 L 411.376 2180.500 408.938 2179.369 L 406.500 2178.239 400 2177.689 L 393.500 2177.139 391.876 2177.819 M 1378.876 2185.250 L 1378.752 2185.500 1378.535 2192.157 L 1378.319 2198.814 1381.284 2199.407 L 1384.250 2200 1389.259 2200 L 1394.268 2200 1398.134 2198.842 L 1402 2197.683 1402 2194.497 L 1402 2191.310 1400.171 2189.655 L 1398.343 2188 1395.797 2188 L 1393.251 2188 1389 2186.500 L 1384.749 2185 1381.874 2185 L 1379 2185 1378.876 2185.250 M 1313.250 2191.161 L 1308 2194.455 1308 2196.093 L 1308 2197.730 1305.869 2200.439 L 1303.739 2203.147 1304.386 2209.824 L 1305.032 2216.500 1307.782 2222 L 1310.532 2227.500 1314.016 2229.312 L 1317.500 2231.123 1325 2230.723 L 1332.500 2230.324 1335.899 2228.232 L 1339.298 2226.140 1341.484 2221.820 L 1343.671 2217.500 1344.302 2209.995 L 1344.933 2202.491 1343.584 2198.495 L 1342.234 2194.500 1338.154 2191.587 L 1334.075 2188.674 1326.287 2188.270 L 1318.500 2187.867 1313.250 2191.161" stroke="none" fill="#ff0000" fill-rule="evenodd"/></svg>