<svg xmlns="http://www.w3.org/2000/svg" width="442px" height="399px" viewBox="0 0 442 399" role="img" aria-label="mdec block diagram"><defs/><g><g><g><g><g transform="translate(0.5,0.5)"><rect x="360" y="37" width="80" height="340" fill="#f6f8fa" stroke="#222"/></g><g><g><text x="400" y="197" fill="#222" font-family="Helvetica" font-size="12px" text-anchor="middle"><tspan x="400" y="197">CPU</tspan><tspan x="400" y="211">(via 32-bit</tspan><tspan x="400" y="225">internal bus)</tspan></text></g></g></g><g><g transform="translate(0.5,0.5)"><rect x="20" y="97" width="200" height="40" fill="#f6f8fa" stroke="#222"/></g><g><g><text x="120" y="121" fill="#222" font-family="Helvetica" font-size="12px" text-anchor="middle">AC run-length decoding</text></g></g></g><g><g transform="translate(0.5,0.5)"><path d="M 70 257 L 70 330.63" fill="none" stroke="#1a7f37" stroke-miterlimit="10"/><path d="M 70 335.88 L 66.5 328.88 L 70 330.63 L 73.5 328.88 Z" fill="#1a7f37" stroke="#1a7f37" stroke-miterlimit="10"/></g></g><g><g transform="translate(0.5,0.5)"><rect x="20" y="217" width="200" height="40" fill="#f6f8fa" stroke="#222"/></g><g><g><text x="120" y="241" fill="#222" font-family="Helvetica" font-size="12px" text-anchor="middle">Zigzag reordering + IDCT</text></g></g></g><g><g transform="translate(0.5,0.5)"><path d="M 240 167 L 116.37 167" fill="none" stroke="#1a7f37" stroke-miterlimit="10"/><path d="M 111.12 167 L 118.12 163.5 L 116.37 167 L 118.12 170.5 Z" fill="#1a7f37" stroke="#1a7f37" stroke-miterlimit="10"/></g></g><g><g transform="translate(0.5,0.5)"><rect x="240" y="137" width="80" height="40" fill="#f6f8fa" stroke="#222"/></g><g><g><text x="280" y="154" fill="#222" font-family="Helvetica" font-size="12px" text-anchor="middle"><tspan x="280" y="154">64-entry</tspan><tspan x="280" y="168">luma table</tspan></text></g></g></g><g><g transform="translate(0.5,0.5)"><path d="M 240 187 L 226.37 187" fill="none" stroke="#1a7f37" stroke-miterlimit="10"/><path d="M 221.12 187 L 228.12 183.5 L 226.37 187 L 228.12 190.5 Z" fill="#1a7f37" stroke="#1a7f37" stroke-miterlimit="10"/></g></g><g><g transform="translate(0.5,0.5)"><rect x="240" y="177" width="80" height="40" fill="#f6f8fa" stroke="#222"/></g><g><g><text x="280" y="194" fill="#222" font-family="Helvetica" font-size="12px" text-anchor="middle"><tspan x="280" y="194">64-entry</tspan><tspan x="280" y="208">chroma table</tspan></text></g></g></g><g><g transform="translate(0.5,0.5)"><path d="M 240 237 L 226.37 237" fill="none" stroke="#1a7f37" stroke-miterlimit="10"/><path d="M 221.12 237 L 228.12 233.5 L 226.37 237 L 228.12 240.5 Z" fill="#1a7f37" stroke="#1a7f37" stroke-miterlimit="10"/></g></g><g><g transform="translate(0.5,0.5)"><rect x="240" y="217" width="80" height="40" fill="#f6f8fa" stroke="#222"/></g><g><g><text x="280" y="234" fill="#222" font-family="Helvetica" font-size="12px" text-anchor="middle"><tspan x="280" y="234">8x8</tspan><tspan x="280" y="248">IDCT matrix</tspan></text></g></g></g><g><g transform="translate(0.5,0.5)"><path d="M 220 357 L 233.63 357" fill="none" stroke="#1a7f37" stroke-miterlimit="10"/><path d="M 238.88 357 L 231.88 360.5 L 233.63 357 L 231.88 353.5 Z" fill="#1a7f37" stroke="#1a7f37" stroke-miterlimit="10"/></g></g><g><g transform="translate(0.5,0.5)"><rect x="20" y="337" width="200" height="40" fill="#f6f8fa" stroke="#222"/></g><g><g><text x="120" y="354" fill="#222" font-family="Helvetica" font-size="12px" text-anchor="middle"><tspan x="120" y="354">YCbCr to 16/24bpp RGB /</tspan><tspan x="120" y="368">4/8bpp block passthrough</tspan></text></g></g></g><g><g transform="translate(0.5,0.5)"><path d="M 70 77 L 70 90.63" fill="none" stroke="#1a7f37" stroke-miterlimit="10"/><path d="M 70 95.88 L 66.5 88.88 L 70 90.63 L 73.5 88.88 Z" fill="#1a7f37" stroke="#1a7f37" stroke-miterlimit="10"/></g></g><g><g transform="translate(0.5,0.5)"><path d="M 170 77 L 170 90.63" fill="none" stroke="#1a7f37" stroke-miterlimit="10"/><path d="M 170 95.88 L 166.5 88.88 L 170 90.63 L 173.5 88.88 Z" fill="#1a7f37" stroke="#1a7f37" stroke-miterlimit="10"/></g></g><g><g transform="translate(0.5,0.5)"><rect x="20" y="37" width="200" height="40" fill="#f6f8fa" stroke="#222"/></g><g><g><text x="120" y="61" fill="#222" font-family="Helvetica" font-size="12px" text-anchor="middle">Macroblock demuxing</text></g></g></g><g><g transform="translate(0.5,0.5)"><rect x="20" y="157" width="90" height="40" fill="#f6f8fa" stroke="#222"/></g><g><g><text x="65" y="174" fill="#222" font-family="Helvetica" font-size="12px" text-anchor="middle"><tspan x="65" y="174">Luma</tspan><tspan x="65" y="188">dequantization</tspan></text></g></g></g><g><g transform="translate(0.5,0.5)"><rect x="130" y="157" width="90" height="40" fill="#f6f8fa" stroke="#222"/></g><g><g><text x="175" y="174" fill="#222" font-family="Helvetica" font-size="12px" text-anchor="middle"><tspan x="175" y="174">Chroma</tspan><tspan x="175" y="188">dequantization</tspan></text></g></g></g><g><g transform="translate(0.5,0.5)"><path d="M 70 137 L 70.59 151.08" fill="none" stroke="#1a7f37" stroke-miterlimit="10"/><path d="M 70.8 156.32 L 67.02 149.47 L 70.59 151.08 L 74.01 149.18 Z" fill="#1a7f37" stroke="#1a7f37" stroke-miterlimit="10"/></g></g><g><g transform="translate(0.5,0.5)"><path d="M 170 137 L 171.4 137 L 171.4 150.47" fill="none" stroke="#1a7f37" stroke-miterlimit="10"/><path d="M 171.4 155.72 L 167.9 148.72 L 171.4 150.47 L 174.9 148.72 Z" fill="#1a7f37" stroke="#1a7f37" stroke-miterlimit="10"/></g></g><g><g transform="translate(0.5,0.5)"><rect x="130" y="277" width="90" height="40" fill="#f6f8fa" stroke="#222"/></g><g><g><text x="175" y="294" fill="#222" font-family="Helvetica" font-size="12px" text-anchor="middle"><tspan x="175" y="294">4:2:0</tspan><tspan x="175" y="308">upsampling</tspan></text></g></g></g><g><g transform="translate(0.5,0.5)"><path d="M 170.1 210.63 L 170.32 197.44" fill="none" stroke="#1a7f37" stroke-miterlimit="10"/><path d="M 170.02 215.88 L 166.63 208.83 L 170.1 210.63 L 173.63 208.94 Z" fill="#1a7f37" stroke="#1a7f37" stroke-miterlimit="10"/></g></g><g><g transform="translate(0.5,0.5)"><path d="M 69.9 210.63 L 69.68 196.84" fill="none" stroke="#1a7f37" stroke-miterlimit="10"/><path d="M 69.98 215.88 L 66.37 208.94 L 69.9 210.63 L 73.37 208.83 Z" fill="#1a7f37" stroke="#1a7f37" stroke-miterlimit="10"/></g></g><g><g transform="translate(0.5,0.5)"><path d="M 170 257 L 170 270.63" fill="none" stroke="#1a7f37" stroke-miterlimit="10"/><path d="M 170 275.88 L 166.5 268.88 L 170 270.63 L 173.5 268.88 Z" fill="#1a7f37" stroke="#1a7f37" stroke-miterlimit="10"/></g></g><g><g transform="translate(0.5,0.5)"><path d="M 170 330.63 L 170 317.68" fill="none" stroke="#1a7f37" stroke-miterlimit="10"/><path d="M 170 335.88 L 166.5 328.88 L 170 330.63 L 173.5 328.88 Z" fill="#1a7f37" stroke="#1a7f37" stroke-miterlimit="10"/></g></g><g><g transform="translate(0.5,0.5)"><path d="M 240 57 L 226.37 57" fill="none" stroke="#1a7f37" stroke-miterlimit="10"/><path d="M 221.12 57 L 228.12 53.5 L 226.37 57 L 228.12 60.5 Z" fill="#1a7f37" stroke="#1a7f37" stroke-miterlimit="10"/></g></g><g><g transform="translate(0.5,0.5)"><path d="M 280 77 L 280 130.63" fill="none" stroke="#1a7f37" stroke-miterlimit="10"/><path d="M 280 135.88 L 276.5 128.88 L 280 130.63 L 283.5 128.88 Z" fill="#1a7f37" stroke="#1a7f37" stroke-miterlimit="10"/></g></g><g><g transform="translate(0.5,0.5)"><rect x="240" y="37" width="80" height="40" fill="#f6f8fa" stroke="#222"/></g><g><g><text x="280" y="54" fill="#222" font-family="Helvetica" font-size="12px" text-anchor="middle"><tspan x="280" y="54">32-word</tspan><tspan x="280" y="68">input FIFO</tspan></text></g></g></g><g><g transform="translate(0.5,0.5)"><rect x="240" y="337" width="80" height="40" fill="#f6f8fa" stroke="#222"/></g><g><g><text x="280" y="354" fill="#222" font-family="Helvetica" font-size="12px" text-anchor="middle"><tspan x="280" y="354">32-word</tspan><tspan x="280" y="368">output FIFO</tspan></text></g></g></g><g><g transform="translate(0.5,0.5)"><path d="M 320 357 L 340 357 L 353.95 356.73" fill="none" stroke="#1a7f37" stroke-miterlimit="10"/><path d="M 359.2 356.62 L 352.27 360.26 L 353.95 356.73 L 352.13 353.26 Z" fill="#1a7f37" stroke="#1a7f37" stroke-miterlimit="10"/></g></g><g><g transform="translate(0.5,0.5)"><path d="M 326.37 57 L 340 57 L 360.56 57.4" fill="none" stroke="#1a7f37" stroke-miterlimit="10"/><path d="M 321.12 57 L 328.12 53.5 L 326.37 57 L 328.12 60.5 Z" fill="#1a7f37" stroke="#1a7f37" stroke-miterlimit="10"/></g></g><g><g transform="translate(0.5,0.5)"><rect x="240" y="277" width="80" height="40" fill="#f6f8fa" stroke="#222"/></g><g><g><text x="280" y="294" fill="#222" font-family="Helvetica" font-size="12px" text-anchor="middle"><tspan x="280" y="294">Status</tspan><tspan x="280" y="308">register</tspan></text></g></g></g><g><g transform="translate(0.5,0.5)"><path d="M 320 297 L 340 297 L 353.63 296.84" fill="none" stroke="#1a7f37" stroke-miterlimit="10"/><path d="M 358.88 296.77 L 351.92 300.36 L 353.63 296.84 L 351.84 293.36 Z" fill="#1a7f37" stroke="#1a7f37" stroke-miterlimit="10"/></g></g><g><g transform="translate(0.5,0.5)"><rect x="0" y="17" width="340" height="380" fill="none" stroke="#888" stroke-dasharray="3 3"/></g><g><g><text x="170" y="14" fill="#222" font-family="Helvetica" font-size="12px" text-anchor="middle">MDEC (built into CPU SoC)</text></g></g></g></g></g></g></svg>
